<svg id="OBJECTS" xmlns="http://www.w3.org/2000/svg" viewBox="0 0 58.67 60.79"><defs><style>.cls-1{fill:#ef8b7b;}.cls-2{fill:#fff;}.cls-3{fill:#5686c4;}.cls-4{fill:#2a4f9a;}.cls-5{fill:#ad79ad;}.cls-6{fill:none;stroke:#fff;stroke-miterlimit:10;}</style></defs><path class="cls-1" d="M219.28,187.67h58.66s0-24-26.83-24C219.28,163.64,219.28,187.67,219.28,187.67Z" transform="translate(-219.28 -126.88)"/><path class="cls-2" d="M247.11,171.58c0,.33-.93.59-2.09.59s-2.08-.26-2.08-.59.93-.58,2.08-.58S247.11,171.26,247.11,171.58Z" transform="translate(-219.28 -126.88)"/><path class="cls-2" d="M251.11,175.16c0,.27-.71.49-1.58.49s-1.59-.22-1.59-.49.71-.49,1.59-.49S251.11,174.89,251.11,175.16Z" transform="translate(-219.28 -126.88)"/><path class="cls-2" d="M260.22,170.92c0,.37-.69.66-1.55.66s-1.56-.29-1.56-.66.7-.67,1.56-.67S260.22,170.55,260.22,170.92Z" transform="translate(-219.28 -126.88)"/><ellipse class="cls-2" cx="21.41" cy="46.62" rx="0.92" ry="0.5"/><path class="cls-3" d="M255.09,168.19a5.12,5.12,0,0,0-4.09,2.06s-2.84-2.36-4.38-2.12a107.15,107.15,0,0,0,2.5-26.38l2-.07S251.69,165.38,255.09,168.19Z" transform="translate(-219.28 -126.88)"/><path class="cls-2" d="M247.11,171.58c0,.33-.93.59-2.09.59s-2.08-.26-2.08-.59.93-.58,2.08-.58S247.11,171.26,247.11,171.58Z" transform="translate(-219.28 -126.88)"/><path class="cls-2" d="M251.11,175.16c0,.27-.71.49-1.58.49s-1.59-.22-1.59-.49.71-.49,1.59-.49S251.11,174.89,251.11,175.16Z" transform="translate(-219.28 -126.88)"/><path class="cls-2" d="M260.22,170.92c0,.37-.69.66-1.55.66s-1.56-.29-1.56-.66.7-.67,1.56-.67S260.22,170.55,260.22,170.92Z" transform="translate(-219.28 -126.88)"/><ellipse class="cls-2" cx="21.41" cy="46.62" rx="0.92" ry="0.5"/><path class="cls-4" d="M247.89,156.05s-8.84,4.68-14.34-5.75C233.55,150.3,244.62,146,247.89,156.05Z" transform="translate(-219.28 -126.88)"/><path class="cls-4" d="M252.69,160.67s1.89-7.08,10.25-4.84C262.94,155.83,259.75,164,252.69,160.67Z" transform="translate(-219.28 -126.88)"/><path class="cls-5" d="M249,137.52l2,0s4.12-10.71-1.19-10.61S249,137.52,249,137.52Z" transform="translate(-219.28 -126.88)"/><path class="cls-5" d="M252,139.31l-1.4,1.45s4.66,10.48,8.35,6.66S252,139.31,252,139.31Z" transform="translate(-219.28 -126.88)"/><path class="cls-5" d="M248.5,137.72l-1,1.76s-11.39-1.33-8.83-6S248.5,137.72,248.5,137.72Z" transform="translate(-219.28 -126.88)"/><path class="cls-5" d="M251.25,137.72l1,1.76s11.39-1.33,8.83-6S251.25,137.72,251.25,137.72Z" transform="translate(-219.28 -126.88)"/><path class="cls-5" d="M248.14,139.68l1.4,1.45s-4.66,10.49-8.35,6.66S248.14,139.68,248.14,139.68Z" transform="translate(-219.28 -126.88)"/><path class="cls-2" d="M252.69,139A2.69,2.69,0,1,1,250,136.3,2.69,2.69,0,0,1,252.69,139Z" transform="translate(-219.28 -126.88)"/><path class="cls-6" d="M257,168.33c-4.5-.83-6,1.92-6,1.92-3.22-3.75-6.6-1.37-6.6-1.37" transform="translate(-219.28 -126.88)"/></svg>