<svg id="OBJECTS" xmlns="http://www.w3.org/2000/svg" viewBox="0 0 58.67 55.58"><defs><style>.cls-1{fill:#ef8b7b;}.cls-2{fill:#2a4f9a;}.cls-3{fill:#fff;}.cls-4{fill:#5686c4;}.cls-5{fill:#ad79ad;}.cls-6{fill:none;stroke:#fff;stroke-miterlimit:10;}</style></defs><path class="cls-1" d="M75.79,187.67h58.67s0-24-26.83-24C75.79,163.64,75.79,187.67,75.79,187.67Z" transform="translate(-75.79 -132.08)"/><path class="cls-2" d="M114.57,138.82S118.38,131.5,127,136C127,136,121.52,144.13,114.57,138.82Z" transform="translate(-75.79 -132.08)"/><path class="cls-2" d="M102.54,144.4s-3.42-.65-2.79-6.28C99.75,138.12,104.46,140.17,102.54,144.4Z" transform="translate(-75.79 -132.08)"/><path class="cls-2" d="M114.16,158.17s1.92-1.3,4.27,1.64C118.43,159.81,115.25,161.06,114.16,158.17Z" transform="translate(-75.79 -132.08)"/><path class="cls-2" d="M115.77,156s-2.4-2.22.9-6.4C116.67,149.56,119.41,153.54,115.77,156Z" transform="translate(-75.79 -132.08)"/><path class="cls-3" d="M102.17,171.58c0,.33-.94.59-2.09.59s-2.08-.26-2.08-.59.93-.58,2.08-.58S102.17,171.26,102.17,171.58Z" transform="translate(-75.79 -132.08)"/><path class="cls-3" d="M106.17,175.16c0,.27-.71.49-1.59.49s-1.58-.22-1.58-.49.71-.49,1.58-.49S106.17,174.89,106.17,175.16Z" transform="translate(-75.79 -132.08)"/><path class="cls-3" d="M115.28,170.92c0,.37-.7.66-1.56.66s-1.55-.29-1.55-.66.69-.67,1.55-.67S115.28,170.55,115.28,170.92Z" transform="translate(-75.79 -132.08)"/><ellipse class="cls-3" cx="19.96" cy="41.42" rx="0.92" ry="0.5"/><path class="cls-4" d="M120.91,151.6c-2.63,5.34-9.63,5.3-11.92,5.14a9.16,9.16,0,0,1,2.51-6c5.75-5.75,3.75-11.25,1.75-14.75,0,0,1.68,9.23-3.5,11.38-.07-.11-2.46-4.11-8.63-2.76,0,0,5.5,1,6.55,4.66-4.74,3.76-6.67,9.48-5.42,19a4.84,4.84,0,0,1,5.25,2,4.41,4.41,0,0,1,4-2.16,27.18,27.18,0,0,1-2.54-9.78C117.73,159.87,120.91,151.6,120.91,151.6Z" transform="translate(-75.79 -132.08)"/><path class="cls-5" d="M123.25,150.46a1.79,1.79,0,1,1-1.79-1.79A1.79,1.79,0,0,1,123.25,150.46Z" transform="translate(-75.79 -132.08)"/><path class="cls-5" d="M113.72,133.61a1.53,1.53,0,1,1-1.52-1.53A1.52,1.52,0,0,1,113.72,133.61Z" transform="translate(-75.79 -132.08)"/><path class="cls-2" d="M112.94,143.53s-.44-2-3.69-2.27C109.25,141.26,109.62,143.4,112.94,143.53Z" transform="translate(-75.79 -132.08)"/><path class="cls-6" d="M100.92,168.88s3.37-2.38,6.6,1.37c0,0,1.48-2.75,6-1.92" transform="translate(-75.79 -132.08)"/></svg>