<svg id="OBJECTS" xmlns="http://www.w3.org/2000/svg" viewBox="0 0 61.53 63.6"><defs><style>.cls-1{fill:#5686c4;}.cls-2{fill:#6e315f;}.cls-3{fill:#ef8b7b;}.cls-4{fill:#fff;}.cls-5{fill:#2a4f9a;}.cls-6{fill:#ad79ad;}.cls-7{fill:none;stroke:#fff;stroke-miterlimit:10;}</style></defs><path class="cls-1" d="M411.12,168.13s7.18-6.7,9.05-15.58l1.08.68s-4.13,15.06-3.5,18.35Z" transform="translate(-367.83 -124.07)"/><path class="cls-2" d="M398.57,134.78l-1.3.74s-6.7-5.29-3.26-7.25S398.57,134.78,398.57,134.78Z" transform="translate(-367.83 -124.07)"/><path class="cls-2" d="M400.91,134.78l1.3.74s6.7-5.29,3.26-7.25S400.91,134.78,400.91,134.78Z" transform="translate(-367.83 -124.07)"/><path class="cls-2" d="M399.9,140.5l1.4-.52s5.76,6.3,2.05,7.68S399.9,140.5,399.9,140.5Z" transform="translate(-367.83 -124.07)"/><path class="cls-2" d="M396,136.84l.44,1.43s-6.64,5.36-7.79,1.58S396,136.84,396,136.84Z" transform="translate(-367.83 -124.07)"/><path class="cls-2" d="M399.17,141.54l-1.34-.68s-6.44,5.6-2.92,7.39S399.17,141.54,399.17,141.54Z" transform="translate(-367.83 -124.07)"/><path class="cls-3" d="M368.43,187.67H427.1s0-24-26.84-24C368.43,163.64,368.43,187.67,368.43,187.67Z" transform="translate(-367.83 -124.07)"/><path class="cls-4" d="M396.26,171.58c0,.33-.93.59-2.08.59s-2.09-.26-2.09-.59.94-.58,2.09-.58S396.26,171.26,396.26,171.58Z" transform="translate(-367.83 -124.07)"/><path class="cls-4" d="M400.26,175.16c0,.27-.71.49-1.58.49s-1.59-.22-1.59-.49.71-.49,1.59-.49S400.26,174.89,400.26,175.16Z" transform="translate(-367.83 -124.07)"/><path class="cls-4" d="M409.38,170.92c0,.37-.7.66-1.56.66s-1.56-.29-1.56-.66.7-.67,1.56-.67S409.38,170.55,409.38,170.92Z" transform="translate(-367.83 -124.07)"/><path class="cls-4" d="M390.76,173.5c0,.28-.41.5-.92.5s-.91-.22-.91-.5.41-.5.91-.5S390.76,173.22,390.76,173.5Z" transform="translate(-367.83 -124.07)"/><path class="cls-1" d="M404.24,168.19a5.09,5.09,0,0,0-4.08,2.06s-2.84-2.36-4.38-2.12a124.32,124.32,0,0,0,2.8-28.43l2-.08S400.84,165.38,404.24,168.19Z" transform="translate(-367.83 -124.07)"/><path class="cls-4" d="M396.26,171.58c0,.33-.93.59-2.08.59s-2.09-.26-2.09-.59.94-.58,2.09-.58S396.26,171.26,396.26,171.58Z" transform="translate(-367.83 -124.07)"/><path class="cls-4" d="M400.26,175.16c0,.27-.71.49-1.58.49s-1.59-.22-1.59-.49.71-.49,1.59-.49S400.26,174.89,400.26,175.16Z" transform="translate(-367.83 -124.07)"/><path class="cls-4" d="M409.38,170.92c0,.37-.7.66-1.56.66s-1.56-.29-1.56-.66.7-.67,1.56-.67S409.38,170.55,409.38,170.92Z" transform="translate(-367.83 -124.07)"/><path class="cls-4" d="M390.76,173.5c0,.28-.41.5-.92.5s-.91-.22-.91-.5.41-.5.91-.5S390.76,173.22,390.76,173.5Z" transform="translate(-367.83 -124.07)"/><path class="cls-5" d="M397.15,155.89s-10,5.29-16.2-6.49C381,149.4,393.46,144.49,397.15,155.89Z" transform="translate(-367.83 -124.07)"/><path class="cls-5" d="M401.68,158.29s1.95-7.31,10.57-5C412.25,153.29,409,161.66,401.68,158.29Z" transform="translate(-367.83 -124.07)"/><path class="cls-5" d="M419.05,162.35s3.17-4.48,8.44-.73C427.49,161.62,423.14,166.48,419.05,162.35Z" transform="translate(-367.83 -124.07)"/><path class="cls-6" d="M398.45,135.52l2.16,0S405,124,399.33,124.07,398.45,135.52,398.45,135.52Z" transform="translate(-367.83 -124.07)"/><path class="cls-2" d="M403.1,136.86l-.11,1.49s7.65,3.78,7.94-.17S403.1,136.86,403.1,136.86Z" transform="translate(-367.83 -124.07)"/><path class="cls-6" d="M401.74,137.43,400.23,139s5,11.27,9,7.16S401.74,137.43,401.74,137.43Z" transform="translate(-367.83 -124.07)"/><path class="cls-6" d="M398,135.73l-1,1.89s-12.24-1.43-9.49-6.44S398,135.73,398,135.73Z" transform="translate(-367.83 -124.07)"/><path class="cls-6" d="M400.91,135.73l1,1.89s12.24-1.43,9.49-6.44S400.91,135.73,400.91,135.73Z" transform="translate(-367.83 -124.07)"/><path class="cls-6" d="M397.56,137.84l1.5,1.55s-5,11.27-9,7.16S397.56,137.84,397.56,137.84Z" transform="translate(-367.83 -124.07)"/><path class="cls-4" d="M402.46,137.09a2.9,2.9,0,1,1-2.9-2.89A2.89,2.89,0,0,1,402.46,137.09Z" transform="translate(-367.83 -124.07)"/><path class="cls-6" d="M421.4,150.38l1.15.55s5.32-4.89,2.3-6.33S421.4,150.38,421.4,150.38Z" transform="translate(-367.83 -124.07)"/><path class="cls-6" d="M422.63,152.25l-1.2.42s-.31,7.23,2.85,6.1S422.63,152.25,422.63,152.25Z" transform="translate(-367.83 -124.07)"/><path class="cls-6" d="M421.08,150.37l-1,.72s-6.05-4-3.3-5.86S421.08,150.37,421.08,150.37Z" transform="translate(-367.83 -124.07)"/><path class="cls-6" d="M422.64,151.14l.05,1.26s6.8,2.44,6.66-.9S422.64,151.14,422.64,151.14Z" transform="translate(-367.83 -124.07)"/><path class="cls-6" d="M420.33,151.37l.38,1.21s-5.56,4.61-6.58,1.42S420.33,151.37,420.33,151.37Z" transform="translate(-367.83 -124.07)"/><path class="cls-4" d="M423.09,152.26a1.69,1.69,0,1,1-.76-2.28A1.69,1.69,0,0,1,423.09,152.26Z" transform="translate(-367.83 -124.07)"/><path class="cls-1" d="M378.8,169.19,374.12,156l1.19,7.25c-1.2.22-3.83.46-5.25-1.34,0,0,.49,2.89,5.54,3.12l1,5.93Z" transform="translate(-367.83 -124.07)"/><path class="cls-6" d="M376,155a2.12,2.12,0,1,1-2.11-2.12A2.12,2.12,0,0,1,376,155Z" transform="translate(-367.83 -124.07)"/><path class="cls-6" d="M371,160.68a1.59,1.59,0,1,1-1.59-1.59A1.59,1.59,0,0,1,371,160.68Z" transform="translate(-367.83 -124.07)"/><path class="cls-5" d="M376,166.77s-1,4.17-6,2.92C370.06,169.69,371.87,164.91,376,166.77Z" transform="translate(-367.83 -124.07)"/><path class="cls-5" d="M376.52,161s-.44-3.21,3.35-3.72C379.87,157.23,380,161.08,376.52,161Z" transform="translate(-367.83 -124.07)"/><path class="cls-7" d="M406.13,168.33c-4.5-.83-6,1.92-6,1.92-3.23-3.75-6.61-1.37-6.61-1.37" transform="translate(-367.83 -124.07)"/></svg>