<?xml version="1.0" encoding="utf-8"?>
<!-- Generator: Adobe Illustrator 26.0.0, SVG Export Plug-In . SVG Version: 6.00 Build 0)  -->
<svg version="1.1" xmlns="http://www.w3.org/2000/svg" xmlns:xlink="http://www.w3.org/1999/xlink" x="0px" y="0px"
	 viewBox="0 0 500 500" style="enable-background:new 0 0 500 500;" xml:space="preserve">
<style type="text/css">
	.st0{fill:#FAFAFA;}
	.st1{fill:#F0F0F0;}
	.st2{fill:#E0E0E0;}
	.st3{fill:#37474F;}
	.st4{fill:#455A64;}
	.st5{fill:#263238;}
	.st6{fill:#F5F5F5;}
	.st7{opacity:0.15;}
	.st8{fill:inherit;}
	.st9{opacity:0.25;}
	.st10{fill:#EBEBEB;}
	.st11{opacity:0.1;}
	.st12{opacity:0.5;fill:#FFFFFF;}
	.st13{opacity:0.3;fill:#FFFFFF;}
	.st14{opacity:0.15;fill:#FFFFFF;}
	.st15{opacity:0.2;fill:#FFFFFF;}
	.st16{fill:#FFA8A7;}
	.st17{fill:#F28F8F;}
	.st18{opacity:0.3;}
	.st19{fill:#B16668;}
	.st20{fill:#C8856A;}
	.st21{fill:#AF6152;}
	.st22{opacity:0.2;}
</style>
<g id="Floor">
	<path id="Floor_00000058573466528854243060000012553661817602741928_" class="st0" d="M102.13,288.35
		c-79.65,45.99-79.65,120.55,0,166.54c79.66,45.99,208.8,45.99,288.46,0c79.65-45.99,79.65-120.55,0-166.54
		C310.93,242.36,181.78,242.36,102.13,288.35z"/>
</g>
<g id="Clouds">
	<g id="Clouds_00000002386434772826173510000003553264309811756932_">
		<g id="XMLID_4066_">
			<path class="st1" d="M215.36,73.5l-3.96,1.96V66.3c0-6.92-5.52-8.58-11.51-5.12l0,0c-5.99,3.46-10.85,11.87-10.85,18.79v1.27
				c-1.36-0.54-3.11-0.33-5.03,0.78l0,0c-4.31,2.49-7.81,8.54-7.81,13.52v0.58l-5.52,3.19c-2.84,1.64-5.14,5.63-5.14,8.9
				c0,3.28,2.3,4.61,5.14,2.97l44.68-25.8c2.84-1.64,5.14-5.63,5.14-8.9S218.2,71.86,215.36,73.5z"/>
		</g>
		<g id="XMLID_4059_">
			<path class="st1" d="M284.54,61.73l-7.18,4.15c0.04-0.32,0.06-0.64,0.06-0.95v-2.08c0-3.7-2.6-5.2-5.81-3.35
				c-1.3,0.75-2.49,1.94-3.46,3.33c-0.53-4.65-4.18-6.39-8.61-3.83c-4.8,2.77-8.68,9.5-8.68,15.04v3.11c0,1.43,0.27,2.64,0.74,3.61
				l-5.96,3.44c-1.78,1.03-3.22,3.52-3.22,5.58c0,2.05,1.44,2.89,3.22,1.86l38.91-22.47c1.78-1.03,3.22-3.52,3.22-5.58
				C287.76,61.54,286.32,60.71,284.54,61.73z"/>
		</g>
	</g>
</g>
<g id="Shadows">
	<ellipse id="Shadow_17_" class="st2" cx="161.35" cy="400.64" rx="18.24" ry="10.53"/>
	<path id="Shadow_37_" class="st2" d="M119.42,396.49c7.12,4.11,18.67,4.11,25.79,0c7.12-4.11,7.12-10.78,0-14.89
		c-7.12-4.11-18.67-4.11-25.79,0C112.29,385.71,112.29,392.38,119.42,396.49z"/>
	<g id="Shadow_00000012450236629656562520000012068467060840979336_">
		<path class="st2" d="M213.84,408.19L213.84,408.19c-1.61-0.93-1.61-3.26,0-4.19l130.27-75.19c0.75-0.43,1.67-0.43,2.42,0l0,0
			c1.61,0.93,1.61,3.26,0,4.19l-130.27,75.19C215.51,408.63,214.59,408.63,213.84,408.19z"/>
		<path class="st2" d="M378.99,335.26l-7.24,4.18c-1.75,1.01-3.9,1.01-5.65,0l-28.34-16.36c-1.62-0.93-1.62-3.27,0-4.2l7.24-4.18
			c1.75-1.01,3.9-1.01,5.65,0l28.34,16.36C380.61,331.99,380.61,334.33,378.99,335.26z"/>
	</g>
	<path id="Shadow_4_" class="st2" d="M331.49,365.31l6.88-3.99c2.07-1.2,5.43-1.21,7.51-0.01l2.4,1.38l8.95-5.17
		c0.81-0.47,2.12-0.47,2.93,0l0.06,0.03c0.81,0.47,0.81,1.22,0,1.69l-8.95,5.17l0.5,0.29c2.07,1.2,2.08,3.14,0,4.34l-6.88,3.98
		l-10.04,5.8l-13.39-7.73L331.49,365.31z"/>
	
		<ellipse id="Shadow_00000099650532074972252410000005394458480592405635_" class="st2" cx="430.35" cy="359.66" rx="45.92" ry="26.51"/>
	
		<ellipse id="Shadow_00000114788803814339838790000008035567365369819305_" class="st2" cx="75.03" cy="419.66" rx="45.92" ry="26.51"/>
</g>
<g id="Paint_Pot">
	<g id="Paint_Pot_2_">
		<path id="XMLID_3724_" class="st3" d="M147.88,362.88l-30.47-0.41l-0.27,24.88l0,0c-0.03,2.25,1.44,4.52,4.39,6.27
			c5.91,3.5,15.56,3.6,21.55,0.23c3.02-1.7,4.53-3.96,4.53-6.23L147.88,362.88z"/>
		<path id="XMLID_00000003100758324104782620000003068998636818771095_" class="st4" d="M121.95,356.3
			c-5.99,3.37-6.05,8.94-0.13,12.44c5.91,3.5,15.56,3.6,21.55,0.23c5.99-3.37,6.05-8.94,0.13-12.44
			C137.58,353.03,127.93,352.93,121.95,356.3z"/>
		<path id="XMLID_00000065046058001838655440000001679936122924629410_" class="st5" d="M146.57,362.78c0,0.4-0.08,0.8-0.22,1.19
			c-0.46,1.43-1.71,2.75-3.65,3.85c-2.7,1.51-6.3,2.32-10.15,2.29c-3.83-0.05-7.41-0.93-10.08-2.5c-1.87-1.11-3.1-2.45-3.53-3.85
			c-0.15-0.41-0.22-0.85-0.22-1.28c0.03-1.86,1.39-3.65,3.86-5.02c2.69-1.52,6.3-2.34,10.13-2.29c3.85,0.03,7.43,0.93,10.1,2.5
			C145.26,359.12,146.59,360.93,146.57,362.78z"/>
		<path id="XMLID_522_" class="st6" d="M146.36,363.98c-0.46,1.43-1.71,2.75-3.65,3.85c-2.7,1.51-6.3,2.32-10.15,2.29
			c-3.83-0.05-7.41-0.93-10.08-2.5c-1.87-1.11-3.1-2.45-3.53-3.85c0.46-1.43,1.71-2.75,3.65-3.83c2.69-1.53,6.3-2.34,10.13-2.3
			c3.85,0.05,7.43,0.95,10.1,2.52C144.7,361.26,145.91,362.58,146.36,363.98z"/>
		<path class="st7" d="M142.71,367.82c0.51-0.29,0.97-0.59,1.39-0.91c-5.56,2.98-15.13,1.73-18.11-0.62
			c-2.98-2.34-3.38-6.35,1.47-8.14c-1.8,0.39-3.45,0.98-4.85,1.78c-1.94,1.08-3.18,2.4-3.65,3.83c0.43,1.39,1.66,2.74,3.53,3.85
			c2.67,1.57,6.25,2.45,10.08,2.5C136.41,370.14,140.01,369.33,142.71,367.82z"/>
		<path id="XMLID_521_" class="st5" d="M139.14,372.2c0.67-0.38,1.2-0.06,1.19,0.71c-0.01,0.77-0.56,1.69-1.23,2.07
			c-0.67,0.38-1.2,0.06-1.19-0.71C137.93,373.51,138.47,372.58,139.14,372.2z"/>
		<g id="XMLID_515_">
			<path id="XMLID_520_" class="st2" d="M117.36,366.84c-1.67,3.3-5.01,11.16-0.68,14.36c0.18,0.13,0.35,0.25,0.53,0.36l-0.02,1.59
				c-0.43-0.27-0.88-0.56-1.31-0.88c-6.47-4.79,0.83-17.09,1.14-17.61c0.08-0.15,0.22-0.23,0.36-0.28L117.36,366.84z"/>
			<path id="XMLID_519_" class="st2" d="M139.71,373.91c-0.18,0.38-4.89,9.38-12.63,11.19c-0.9,0.22-1.77,0.32-2.67,0.32
				c-2.4,0-4.81-0.75-7.21-2.25l0.02-1.59c3.2,2.22,6.42,2.98,9.57,2.25c7.14-1.67,11.72-10.44,11.75-10.53
				c0.17-0.33,0.58-0.45,0.9-0.28C139.76,373.18,139.89,373.57,139.71,373.91z"/>
		</g>
	</g>
	<g id="Paint_Pot_3_">
		<path id="XMLID_00000116195564498497513130000012269990687297512833_" class="st3" d="M176.92,374.48l-30.47-0.41l-0.27,24.88l0,0
			c-0.03,2.25,1.44,4.52,4.39,6.27c5.91,3.5,15.56,3.6,21.55,0.23c3.02-1.7,4.53-3.96,4.53-6.23L176.92,374.48z"/>
		<path id="XMLID_00000082358491290336869380000007528657979079389593_" class="st4" d="M150.98,367.9
			c-5.99,3.37-6.05,8.94-0.13,12.44c5.91,3.5,15.56,3.6,21.55,0.23c5.99-3.37,6.05-8.94,0.13-12.44
			C166.62,364.63,156.97,364.52,150.98,367.9z"/>
		<path id="XMLID_598_" class="st5" d="M175.61,374.38c0,0.4-0.08,0.8-0.22,1.19c-0.46,1.43-1.71,2.75-3.65,3.85
			c-2.7,1.51-6.3,2.32-10.15,2.29c-3.83-0.05-7.41-0.93-10.08-2.5c-1.87-1.11-3.1-2.45-3.53-3.85c-0.15-0.41-0.22-0.85-0.22-1.28
			c0.03-1.86,1.39-3.65,3.86-5.02c2.69-1.52,6.3-2.34,10.13-2.29c3.85,0.03,7.43,0.93,10.1,2.5
			C174.3,370.71,175.62,372.52,175.61,374.38z"/>
		<path id="XMLID_524_" class="st8" d="M175.39,375.57c-0.46,1.43-1.71,2.75-3.65,3.85c-2.7,1.51-6.3,2.32-10.15,2.29
			c-3.83-0.05-7.41-0.93-10.08-2.5c-1.87-1.11-3.1-2.45-3.53-3.85c0.46-1.43,1.71-2.75,3.65-3.83c2.69-1.53,6.3-2.34,10.13-2.3
			c3.85,0.05,7.43,0.94,10.1,2.52C173.73,372.85,174.94,374.18,175.39,375.57z"/>
		<path class="st7" d="M171.75,379.42c0.51-0.29,0.97-0.59,1.39-0.91c-5.56,2.98-15.13,1.73-18.11-0.62
			c-2.98-2.34-3.38-6.35,1.47-8.14c-1.8,0.39-3.45,0.98-4.85,1.78c-1.94,1.08-3.18,2.4-3.65,3.83c0.43,1.39,1.66,2.74,3.53,3.85
			c2.67,1.57,6.25,2.45,10.08,2.5C165.45,381.74,169.04,380.93,171.75,379.42z"/>
		<path id="XMLID_3745_" class="st5" d="M168.18,383.8c0.67-0.38,1.2-0.06,1.19,0.71c-0.01,0.77-0.56,1.69-1.23,2.07
			c-0.67,0.38-1.2,0.06-1.19-0.71C166.96,385.1,167.51,384.18,168.18,383.8z"/>
		<g id="XMLID_3725_">
			<path id="XMLID_3734_" class="st2" d="M146.4,378.44c-1.67,3.3-5.01,11.16-0.68,14.36c0.18,0.13,0.35,0.25,0.53,0.36l-0.02,1.59
				c-0.43-0.27-0.88-0.56-1.31-0.88c-6.47-4.79,0.83-17.09,1.14-17.61c0.08-0.15,0.22-0.23,0.36-0.28L146.4,378.44z"/>
			<path id="XMLID_3732_" class="st2" d="M168.74,385.5c-0.18,0.38-4.89,9.38-12.63,11.19c-0.9,0.22-1.77,0.32-2.67,0.32
				c-2.4,0-4.81-0.75-7.21-2.25l0.02-1.59c3.2,2.22,6.42,2.98,9.57,2.25c7.14-1.67,11.72-10.44,11.75-10.53
				c0.17-0.33,0.58-0.45,0.9-0.28C168.79,384.77,168.93,385.17,168.74,385.5z"/>
		</g>
	</g>
</g>
<g id="Paint_Roller_00000079482041124467975580000017894911888423745974_">
	<g id="Paint_Roller">
		<g>
			<path class="st3" d="M343.44,329.98c-0.15,0-0.3-0.08-0.38-0.22c-0.12-0.21-0.05-0.48,0.16-0.6l5.61-3.24
				c0.21-0.12,0.48-0.05,0.6,0.16c0.12,0.21,0.05,0.48-0.16,0.6l-5.61,3.24C343.59,329.96,343.51,329.98,343.44,329.98z"/>
		</g>
		<g>
			<path class="st4" d="M344.26,327.3c0.91,0.53,1.64,1.81,1.63,2.86c0,0.53-0.19,0.9-0.5,1.07L215.6,406.15l-2.31-4.04
				l129.78-74.92C343.38,327.01,343.79,327.03,344.26,327.3z"/>
			<path class="st3" d="M216.09,405.09c0,1.05-0.74,1.47-1.65,0.94c-0.91-0.53-1.64-1.81-1.63-2.86c0-1.05,0.74-1.47,1.65-0.94
				C215.36,402.76,216.09,404.04,216.09,405.09z"/>
		</g>
		<g>
			<g>
				<path class="st3" d="M337,317.73c-0.15,0-0.3-0.08-0.38-0.22c-0.12-0.21-0.05-0.48,0.16-0.6l7.73-4.46
					c0.2-0.12,0.48-0.05,0.6,0.16c0.12,0.21,0.05,0.48-0.16,0.6l-7.73,4.46C337.15,317.71,337.07,317.73,337,317.73z"/>
			</g>
			<g>
				<g>
					<path class="st8" d="M342.18,305.35c-2.9,1.67-5.26,5.75-5.26,9.1c0,1.71,0.61,2.89,1.59,3.43l0,0l31.07,17.9l7.49-12.84
						L346,305.04l-0.01,0.01C345.04,304.43,343.69,304.48,342.18,305.35z"/>
					<path class="st8" d="M368,332.35c0-3.35,2.35-7.43,5.26-9.1c2.9-1.68,5.26-0.32,5.25,3.04c0,3.35-2.35,7.43-5.26,9.1
						C370.35,337.06,368,335.7,368,332.35z"/>
					<path class="st9" d="M368,332.35c0-3.35,2.35-7.43,5.26-9.1c2.9-1.68,5.26-0.32,5.25,3.04c0,3.35-2.35,7.43-5.26,9.1
						C370.35,337.06,368,335.7,368,332.35z"/>
					<path d="M371.89,330.11c0-0.87,0.61-1.93,1.37-2.37c0.76-0.44,1.37-0.08,1.37,0.79c0,0.87-0.61,1.93-1.37,2.37
						C372.5,331.33,371.89,330.98,371.89,330.11z"/>
				</g>
			</g>
			<g>
				<path class="st3" d="M363.74,334.8c-0.55,0-1.1-0.14-1.59-0.42l-25.37-14.65c-0.51-0.29-0.81-0.82-0.81-1.41
					c0-0.59,0.3-1.11,0.81-1.41c0.2-0.12,0.48-0.05,0.6,0.16c0.12,0.21,0.05,0.48-0.16,0.6c-0.23,0.13-0.37,0.38-0.37,0.65
					c0,0.27,0.14,0.51,0.37,0.64l25.37,14.65c0.71,0.41,1.6,0.41,2.31,0l8.14-4.7c0.21-0.12,0.48-0.05,0.6,0.16
					c0.12,0.21,0.05,0.48-0.16,0.6l-8.14,4.7C364.84,334.66,364.29,334.8,363.74,334.8z"/>
			</g>
		</g>
	</g>
</g>
<g id="Brush">
	<g id="Brush_7_">
		<g id="XMLID_384_">
			<path id="XMLID_386_" class="st4" d="M345.32,365l12.98-7.48c0.25-0.15,0.41-0.46,0.41-0.9c0-0.89-0.62-1.97-1.39-2.41
				c-0.38-0.22-0.73-0.24-0.98-0.1l-12.98,7.48L345.32,365z"/>
			<polygon id="XMLID_385_" class="st3" points="346.7,359.66 350.63,361.94 345.32,365 343.35,361.58 			"/>
		</g>
		<g id="XMLID_357_">
			<g id="XMLID_369_">
				<g id="XMLID_379_">
					<path id="XMLID_383_" class="st3" d="M331.95,365.87l2.64-1.53l-2.64-1.53l5.43-3.14c1.64-0.95,4.29-0.95,5.92,0l4.63,2.68
						c0.77,0.44,1.18,1.03,1.22,1.61c0,0.06,0.02,2.68-0.01,3.25c-0.03,0.59-0.44,1.17-1.21,1.62l-5.43,3.14L331.95,365.87z"/>
					<path id="XMLID_382_" class="st4" d="M347.94,362.36l-4.63-2.68c-1.63-0.95-4.29-0.95-5.92,0l-5.43,3.14l10.55,6.11l5.43-3.14
						C349.57,364.84,349.58,363.31,347.94,362.36z"/>
					<polygon id="XMLID_381_" class="st1" points="342.51,368.92 331.96,362.81 324.03,367.38 334.59,373.49 					"/>
					<polygon id="XMLID_380_" class="st10" points="342.51,368.92 334.59,373.49 334.58,376.54 342.5,371.97 					"/>
				</g>
				<polygon id="XMLID_377_" class="st8" points="344.86,367.56 334.31,361.45 335.39,360.83 346,366.9 				"/>
				<polygon id="XMLID_376_" class="st8" points="344.86,367.56 344.86,370.61 346,369.95 346,366.9 				"/>
				<polygon id="XMLID_370_" class="st11" points="344.86,367.56 344.86,370.61 346,369.95 346,366.9 				"/>
			</g>
			<g>
				<path id="XMLID_368_" class="st8" d="M337,375.14c0,0,1.45-1.86,0.67-3.43l-3.09,1.78l0,3.05L337,375.14z"/>
				<path id="XMLID_367_" class="st11" d="M337,375.14c0,0,1.45-1.86,0.67-3.43l-3.09,1.78l0,3.05L337,375.14z"/>
			</g>
			<path id="XMLID_366_" class="st8" d="M337.67,371.71c0,0-0.21-2.06-2.16-2.9c-1.44-0.62-4.5,0.64-5.76-1.42
				c-0.89-1.45,0.09-3.35,0.09-3.35l-5.81,3.34l10.55,6.11L337.67,371.71z"/>
			<g>
				<polygon id="XMLID_365_" class="st8" points="324.03,367.38 324.03,370.43 334.58,376.54 334.59,373.49 				"/>
				<polygon id="XMLID_358_" class="st7" points="324.03,367.38 324.03,370.43 334.58,376.54 334.59,373.49 				"/>
			</g>
		</g>
	</g>
</g>
<g id="Letters_00000019664873328924652780000016941822024691806886_">
	<g id="Letters">
		<g>
			<g>
				<polygon class="st8" points="354.32,177.42 336.95,187.44 336.95,232.86 351.2,241.1 351.2,195.68 368.59,185.64 				"/>
				<g>
					<path class="st8" d="M336.95,232.86c0,11.82-3.1,20.16-9.28,25.06c0.61,10.81,4.53,14.13,11.76,9.95
						c7.85-4.53,11.77-13.46,11.77-26.76L336.95,232.86z"/>
					<path class="st11" d="M336.95,232.86c0,11.82-3.1,20.16-9.28,25.06c0.61,10.81,4.53,14.13,11.76,9.95
						c7.85-4.53,11.77-13.46,11.77-26.76L336.95,232.86z"/>
				</g>
				<polygon class="st8" points="313.32,201.09 295.66,211.28 295.66,257.42 309.92,265.64 309.92,219.52 327.57,209.33 				"/>
				<g>
					<path class="st8" d="M317.64,289.84c-5.15-3.77-7.71-11.83-7.71-24.2l-14.27-8.23c0,12.36,2.57,20.43,7.71,24.19
						c0.4,0.29,0.81,0.56,1.23,0.8c2.17,1.21,11.71,6.76,13.79,7.96C318.13,290.2,317.88,290.02,317.64,289.84z"/>
					<path class="st11" d="M317.64,289.84c-5.15-3.77-7.71-11.83-7.71-24.2l-14.27-8.23c0,12.36,2.57,20.43,7.71,24.19
						c0.4,0.29,0.81,0.56,1.23,0.8c2.17,1.21,11.71,6.76,13.79,7.96C318.13,290.2,317.88,290.02,317.64,289.84z"/>
				</g>
				<polygon class="st12" points="351.2,195.68 336.94,187.45 354.33,177.41 368.59,185.65 				"/>
				<polygon class="st12" points="309.92,219.52 295.66,211.28 313.31,201.09 327.57,209.33 				"/>
				<g>
					<path class="st8" d="M317.63,289.85c-5.14-3.77-7.71-11.83-7.71-24.2v-46.13l17.65-10.19v45.41c0,13.32,3.95,17.69,11.86,13.13
						c7.85-4.53,11.77-13.45,11.77-26.77v-45.41l17.39-10.04v46.13c0,12.36-2.57,23.4-7.71,33.1c-5.14,9.71-12.35,17.23-21.62,22.59
						C329.98,292.82,322.77,293.61,317.63,289.85z"/>
					<path class="st13" d="M317.63,289.85c-5.14-3.77-7.71-11.83-7.71-24.2v-46.13l17.65-10.19v45.41
						c0,13.32,3.95,17.69,11.86,13.13c7.85-4.53,11.77-13.45,11.77-26.77v-45.41l17.39-10.04v46.13c0,12.36-2.57,23.4-7.71,33.1
						c-5.14,9.71-12.35,17.23-21.62,22.59C329.98,292.82,322.77,293.61,317.63,289.85z"/>
				</g>
			</g>
			<g>
				<path class="st8" d="M276.1,232.01c-1.83-1.04-3.85-1.71-6.07-2c-5.27-0.69-11.19,0.87-17.79,4.68
					c-6.6,3.82-12.53,9.09-17.79,15.86l14.25,8.24c5.27-6.76,11.19-12.05,17.79-15.86c6.6-3.82,12.53-5.37,17.79-4.68
					c2.27,0.29,4.33,0.97,6.17,2.05C288.58,239.19,278.51,233.38,276.1,232.01z"/>
				<path class="st12" d="M276.1,232.01c-1.83-1.04-3.85-1.71-6.07-2c-5.27-0.69-11.19,0.87-17.79,4.68
					c-6.6,3.82-12.53,9.09-17.79,15.86l14.25,8.24c5.27-6.76,11.19-12.05,17.79-15.86c6.6-3.82,12.53-5.37,17.79-4.68
					c2.27,0.29,4.33,0.97,6.17,2.05C288.58,239.19,278.51,233.38,276.1,232.01z"/>
				<path class="st8" d="M234.45,250.55c-5.27,6.76-9.4,14.3-12.39,22.61l14.25,8.24c3.01-8.31,7.14-15.85,12.39-22.61
					L234.45,250.55z"/>
				<path class="st14" d="M234.45,250.55c-5.27,6.76-9.4,14.3-12.39,22.61l14.25,8.24c3.01-8.31,7.14-15.85,12.39-22.61
					L234.45,250.55z"/>
				<path class="st8" d="M236.31,281.39l-14.25-8.24c-3.01,8.31-4.51,16.59-4.51,24.83c0,8.24,1.5,14.78,4.51,19.64l14.25,8.23
					c-3-4.85-4.51-11.39-4.51-19.63C231.81,297.98,233.32,289.7,236.31,281.39z"/>
				<path class="st8" d="M236.31,325.85l-14.25-8.23c1.72,2.77,3.8,4.87,6.27,6.27c1.78,1.02,11.25,6.5,14.01,8.09
					C239.99,330.58,237.97,328.53,236.31,325.85z"/>
				<path class="st11" d="M236.31,325.85l-14.25-8.23c1.72,2.77,3.8,4.87,6.27,6.27c1.78,1.02,11.25,6.5,14.01,8.09
					C239.99,330.58,237.97,328.53,236.31,325.85z"/>
				<path class="st3" d="M267.95,261.66c0.16-0.08,0.31-0.14,0.47-0.21c0,0,0,0,0,0C268.26,261.52,268.1,261.59,267.95,261.66z"/>
				<path class="st8" d="M275.06,260.45c-2.03-0.4-4.24-0.06-6.65,1.01c0.44,1.98,0.68,4.22,0.68,6.77c0,4.68-0.75,9.26-2.24,13.72
					c-1.49,4.47-3.51,8.43-6.06,11.88c-2.55,3.46-5.41,6.1-8.55,7.92c-0.66,0.37-1.3,0.69-1.92,0.96c0.35,1.65,0.88,3.1,1.56,4.35
					c1.49,2.75,3.5,4.38,6.06,4.89c2.55,0.5,5.41-0.15,8.55-1.98c3.15-1.81,6-4.46,8.57-7.91c2.55-3.45,4.58-7.42,6.06-11.88
					c1.49-4.47,2.22-9.03,2.22-13.72c0-4.67-0.74-8.39-2.22-11.14C279.64,262.59,277.61,260.96,275.06,260.45z"/>
				<path class="st11" d="M275.06,260.45c-2.03-0.4-4.24-0.06-6.65,1.01c0.44,1.98,0.68,4.22,0.68,6.77c0,4.68-0.75,9.26-2.24,13.72
					c-1.49,4.47-3.51,8.43-6.06,11.88c-2.55,3.46-5.41,6.1-8.55,7.92c-0.66,0.37-1.3,0.69-1.92,0.96c0.35,1.65,0.88,3.1,1.56,4.35
					c1.49,2.75,3.5,4.38,6.06,4.89c2.55,0.5,5.41-0.15,8.55-1.98c3.15-1.81,6-4.46,8.57-7.91c2.55-3.45,4.58-7.42,6.06-11.88
					c1.49-4.47,2.22-9.03,2.22-13.72c0-4.67-0.74-8.39-2.22-11.14C279.64,262.59,277.61,260.96,275.06,260.45z"/>
				<g>
					<path class="st8" d="M248.71,334.15c-5.26-0.69-9.39-3.45-12.39-8.3c-3-4.85-4.5-11.39-4.5-19.63c0-8.24,1.5-16.52,4.5-24.83
						c3-8.31,7.13-15.85,12.39-22.61c5.26-6.76,11.19-12.05,17.79-15.86c6.6-3.81,12.53-5.37,17.79-4.68
						c2.27,0.3,4.32,0.98,6.17,2.05c2.44,1.41,4.51,3.5,6.22,6.25c3,4.85,4.5,11.39,4.5,19.63c0,8.24-1.5,16.52-4.5,24.83
						c-3,8.31-7.13,15.85-12.39,22.61c-5.26,6.76-11.19,12.05-17.79,15.86C259.9,333.28,253.97,334.84,248.71,334.15z
						 M275.06,302.06c2.55-3.46,4.58-7.42,6.06-11.88c1.48-4.46,2.23-9.03,2.23-13.71c0-4.67-0.74-8.39-2.23-11.14
						c-1.49-2.75-3.51-4.37-6.06-4.88c-2.56-0.5-5.41,0.15-8.56,1.97c-3.15,1.82-6,4.46-8.56,7.91c-2.56,3.46-4.58,7.42-6.06,11.88
						c-1.49,4.47-2.23,9.04-2.23,13.71c0,4.68,0.74,8.39,2.23,11.14c1.48,2.75,3.51,4.38,6.06,4.88c2.55,0.51,5.41-0.15,8.56-1.97
						C269.65,308.16,272.5,305.52,275.06,302.06z"/>
					<path class="st13" d="M248.71,334.15c-5.26-0.69-9.39-3.45-12.39-8.3c-3-4.85-4.5-11.39-4.5-19.63c0-8.24,1.5-16.52,4.5-24.83
						c3-8.31,7.13-15.85,12.39-22.61c5.26-6.76,11.19-12.05,17.79-15.86c6.6-3.81,12.53-5.37,17.79-4.68
						c2.27,0.3,4.32,0.98,6.17,2.05c2.44,1.41,4.51,3.5,6.22,6.25c3,4.85,4.5,11.39,4.5,19.63c0,8.24-1.5,16.52-4.5,24.83
						c-3,8.31-7.13,15.85-12.39,22.61c-5.26,6.76-11.19,12.05-17.79,15.86C259.9,333.28,253.97,334.84,248.71,334.15z
						 M275.06,302.06c2.55-3.46,4.58-7.42,6.06-11.88c1.48-4.46,2.23-9.03,2.23-13.71c0-4.67-0.74-8.39-2.23-11.14
						c-1.49-2.75-3.51-4.37-6.06-4.88c-2.56-0.5-5.41,0.15-8.56,1.97c-3.15,1.82-6,4.46-8.56,7.91c-2.56,3.46-4.58,7.42-6.06,11.88
						c-1.49,4.47-2.23,9.04-2.23,13.71c0,4.68,0.74,8.39,2.23,11.14c1.48,2.75,3.51,4.38,6.06,4.88c2.55,0.51,5.41-0.15,8.56-1.97
						C269.65,308.16,272.5,305.52,275.06,302.06z"/>
				</g>
			</g>
			<g>
				<polygon class="st8" points="218.98,255.56 201.86,265.44 190.5,297.36 186.52,290.76 172.26,282.53 153.62,293.29 
					177.43,332.57 177.43,362.76 191.69,371 209.34,360.81 209.34,330.97 233.24,263.79 				"/>
				<polygon class="st12" points="218.98,255.56 201.86,265.44 190.5,297.36 186.52,290.76 172.26,282.53 153.62,293.29 
					177.43,332.57 177.43,362.76 191.69,371 209.34,360.81 209.34,330.97 233.24,263.79 				"/>
				<polygon class="st8" points="201.86,265.44 216.12,273.67 201.32,315.27 190.5,297.36 				"/>
				<polygon class="st8" points="153.62,293.29 167.88,301.52 191.69,340.8 177.43,332.57 				"/>
				<polygon class="st8" points="177.43,362.76 191.69,371 191.69,340.8 177.43,332.57 				"/>
				<polygon class="st11" points="177.43,362.76 191.69,371 191.69,340.8 177.43,332.57 				"/>
				<g>
					<path class="st8" d="M209.34,330.97v29.84L191.69,371v-30.2l-23.81-39.28l18.64-10.76l14.8,24.51l14.8-41.6l17.12-9.88
						L209.34,330.97z"/>
					<path class="st13" d="M209.34,330.97v29.84L191.69,371v-30.2l-23.81-39.28l18.64-10.76l14.8,24.51l14.8-41.6l17.12-9.88
						L209.34,330.97z"/>
				</g>
			</g>
		</g>
		<g>
			<g>
				<polygon class="st3" points="344.09,69.88 326.8,79.87 326.8,117.73 313.5,104.01 299.24,95.78 284.71,104.17 284.71,187.39 
					298.97,195.62 316.27,185.64 316.27,147.78 329.56,161.49 343.82,169.73 358.35,161.34 358.35,78.12 				"/>
				<path class="st4" d="M358.35,78.12v83.22l-14.53,8.39l-27.55-28.44v44.34l-17.3,9.99V112.4l14.53-8.39l27.55,28.44V88.11
					L358.35,78.12z"/>
				<polygon class="st4" points="284.71,104.17 298.97,112.4 313.5,104.01 299.24,95.78 				"/>
				<polygon class="st15" points="284.71,104.17 298.97,112.4 313.5,104.01 299.24,95.78 				"/>
				<polygon class="st4" points="326.8,79.87 341.06,88.11 358.35,78.12 344.09,69.88 				"/>
				<polygon class="st15" points="326.8,79.87 341.06,88.11 358.35,78.12 344.09,69.88 				"/>
				<polygon class="st5" points="316.27,141.29 343.82,169.73 329.56,161.49 316.27,147.78 				"/>
			</g>
			<g>
				<path class="st3" d="M266.34,131.24l-14.26-8.23l-17.39,10.04l-27.55,99.13l14.26,8.23l18.01-10.4l4.9-19l26.39-15.24l4.9,13.34
					l18.37-10.6L266.34,131.24z"/>
				<path class="st4" d="M270.71,195.77l-26.39,15.24l-4.9,19l-18.01,10.4l27.55-99.13l17.39-10.04l27.64,67.26l-18.37,10.6
					L270.71,195.77z M265.53,181.4l-8.02-22l-8.02,31.26L265.53,181.4z"/>
				<polygon class="st4" points="234.69,133.05 248.95,141.28 266.34,131.24 252.08,123.01 				"/>
				<polygon class="st15" points="234.69,133.05 248.95,141.28 266.34,131.24 252.08,123.01 				"/>
				<polygon class="st5" points="265.53,181.39 253.63,174.52 257.51,159.4 				"/>
			</g>
			<g>
				<polygon class="st3" points="202.15,151.84 184.49,162.03 184.49,193.3 174.68,198.96 174.68,184.16 160.42,175.93 
					142.76,186.12 142.76,269.34 157.02,277.58 174.68,267.38 174.68,234.93 184.49,229.26 184.49,245.25 198.75,253.49 
					216.41,243.29 216.41,160.07 				"/>
				<path class="st4" d="M216.41,160.07v83.22l-17.66,10.19v-32.46l-24.07,13.9v32.46l-17.66,10.19v-83.22l17.66-10.19v31.27
					l24.07-13.9v-31.27L216.41,160.07z"/>
				<polygon class="st4" points="142.76,186.12 157.02,194.36 174.68,184.16 160.42,175.93 				"/>
				<polygon class="st15" points="142.76,186.12 157.02,194.36 174.68,184.16 160.42,175.93 				"/>
				<polygon class="st4" points="184.49,162.03 198.75,170.27 216.41,160.07 202.15,151.84 				"/>
				<polygon class="st15" points="184.49,162.03 198.75,170.27 216.41,160.07 202.15,151.84 				"/>
				<polygon class="st4" points="184.49,193.3 198.75,201.53 174.68,215.43 174.68,198.96 				"/>
				<polygon class="st15" points="184.49,193.3 198.75,201.53 174.68,215.43 174.68,198.96 				"/>
				<polygon class="st5" points="198.75,221.03 198.75,253.49 184.49,245.25 184.49,229.26 				"/>
			</g>
		</g>
	</g>
</g>
<g id="Chartacter_2">
	<g id="Chartacter_00000150098139289133220290000005037121317606044045_">
		<g id="Bottom_00000124858965129860360500000002597731570510407325_">
			<g>
				<path class="st16" d="M422.85,344.51l0.52-9.81l-11.12,1.34c0,0,0.46,5.28,0.78,8.27c0.19,1.77-2.02,5.18-2.02,5.18
					s5.4,2.52,8.15,1.39c2.76-1.14,4.05-4.71,3.97-5.47C423.04,344.65,422.85,344.51,422.85,344.51z"/>
				<path class="st5" d="M396.8,361.2c-0.18,0.01-0.37,1.83,0.61,2.57c1.14,0.85,4.44,2.19,8.71,1.51c4.27-0.68,6.54-2.01,8.2-3.41
					c1.66-1.41,4-3.39,5.92-3.86c1.79-0.44,3.71-1.28,4.27-1.82c0.56-0.54,0.39-2.86,0.39-2.86L396.8,361.2z"/>
				<path id="XMLID_00000065062170536110913600000010720665358170493117_" class="st4" d="M422.85,344.49c0,0,0.54-0.01,0.67,0.52
					c0.16,0.63,0.37,2.48,0.69,3.52c0.45,1.44,0.83,4.42,0.64,5.61c-0.19,1.2-3.1,2.13-4.95,2.87c-1.89,0.75-4.05,2.25-5.94,3.82
					c-1.95,1.63-6.13,3.4-8.93,3.49c-3.31,0.1-7.07-0.76-7.97-2.16c-1.12-1.73-1.97-3.77,2.85-6.08c0.91-0.44,4.1-2.36,5.19-3.06
					c2.94-1.88,4.99-3.59,6.25-6.77c0.15-0.37,0.3-0.78,0.67-0.98c0.28-0.15,0.63-0.15,0.95-0.12c0.82,0.08,4.09,0.38,4.85,0.68
					c0.67,0.27,1.62,0.58,1.63,1.36c0.01,0.27-0.07,0.55-0.15,0.81c-0.05,0.16-0.09,0.38,0.06,0.47c0.15,0.08,0.33-0.02,0.45-0.14
					c0.5-0.45,0.85-1.01,1.26-1.53c0.22-0.28,0.46-0.54,0.75-0.77c0.26-0.2,0.59-0.31,0.82-0.54
					C422.93,345.2,422.85,344.86,422.85,344.49z"/>
				<path class="st3" d="M413.96,360.83c0.83-0.69,1.71-1.36,2.6-1.97l0,0c0,0-5.64,3.49-8.02,2.09c-1.54-0.9-0.87-2.09-0.85-2.47
					c0.02-0.37-5.38-2.8-6.84-2.91l0,0c-0.4,0.23-0.73,0.41-0.94,0.51c-4.82,2.31-3.97,4.34-2.85,6.08c0.91,1.4,3.65,2.42,7.92,2.26
					C407.77,364.31,412.01,362.45,413.96,360.83z"/>
				<path class="st3" d="M408.05,357.38c-3,1.25-1.68,1.74-0.83,1.82c0.86,0.08,5.88-2.91,8.92-5.35c3.17-2.54,5.13-5.26,6.31-6.19
					c0.44-0.35,0.91-0.77,1.33-1.17c-0.1-0.62-0.19-1.19-0.26-1.49c-0.13-0.53-0.67-0.52-0.67-0.52c0,0.37,0.08,0.71-0.2,1
					c-0.23,0.23-0.56,0.34-0.82,0.54c-0.28,0.22-0.53,0.49-0.75,0.77c-0.41,0.52-0.77,1.08-1.26,1.53
					C417.27,351.59,411.06,356.12,408.05,357.38z"/>
				<g>
					<g>
						<path class="st5" d="M407.43,358.77c0.07,0,0.13-0.03,0.19-0.07c0.13-0.1,0.14-0.28,0.03-0.4c-0.9-0.95-5.06-3.14-7.3-2.83
							c-0.17,0.02-0.28,0.17-0.26,0.32c0.02,0.15,0.16,0.26,0.34,0.24c2.09-0.29,6.05,1.89,6.76,2.64
							C407.25,358.74,407.34,358.78,407.43,358.77z"/>
					</g>
					<g>
						<path class="st5" d="M410.03,357.14c0.07,0,0.13-0.03,0.19-0.07c0.13-0.1,0.14-0.28,0.03-0.4c-0.9-0.95-5.06-3.14-7.3-2.82
							c-0.17,0.02-0.28,0.17-0.26,0.32c0.02,0.15,0.17,0.26,0.34,0.24c2.09-0.29,6.05,1.89,6.76,2.64
							C409.85,357.11,409.94,357.15,410.03,357.14z"/>
					</g>
					<g>
						<path class="st5" d="M412.63,355.59c0.07,0,0.13-0.03,0.19-0.07c0.13-0.1,0.14-0.28,0.03-0.4c-0.9-0.95-5.06-3.14-7.3-2.82
							c-0.17,0.02-0.28,0.17-0.26,0.32c0.02,0.15,0.17,0.26,0.34,0.24c2.09-0.29,6.05,1.88,6.76,2.64
							C412.46,355.56,412.54,355.6,412.63,355.59z"/>
					</g>
					<g>
						<path class="st5" d="M415.03,353.84c0.07,0,0.13-0.03,0.19-0.07c0.13-0.1,0.14-0.28,0.03-0.4c-0.9-0.95-5.07-3.14-7.3-2.82
							c-0.17,0.02-0.28,0.17-0.26,0.32c0.02,0.15,0.17,0.26,0.34,0.24c2.08-0.29,6.05,1.88,6.76,2.64
							C414.86,353.82,414.94,353.85,415.03,353.84z"/>
					</g>
					<g>
						<path class="st5" d="M417.38,352.1c0.07,0,0.13-0.02,0.18-0.07c0.13-0.1,0.14-0.28,0.03-0.4c-1.24-1.35-5.58-3.15-7.81-2.83
							c-0.17,0.02-0.28,0.17-0.26,0.32c0.02,0.15,0.17,0.26,0.34,0.24c2.01-0.28,6.17,1.44,7.27,2.64
							C417.2,352.07,417.29,352.1,417.38,352.1z"/>
					</g>
				</g>
			</g>
			<g>
				<path class="st16" d="M445.69,348.59l-2.77-9.19l11.33-2.03l0.72,8.94c0,0,1.28,3.17,0.62,4.36c-0.67,1.19-8.2,2.7-8.92,1.95
					C445.95,351.87,445.69,348.59,445.69,348.59z"/>
				<path class="st5" d="M447.33,368.73c0.44,2.86,1.11,4.69,2.41,6.2c1.3,1.51,3.52,1.69,5.68,0.84c2.16-0.85,4.86-2.63,5.28-5.22
					c0.42-2.59,0.14-4.28-0.59-6.88L447.33,368.73z"/>
				<path id="XMLID_00000013880222838951787020000003310119351930782592_" class="st4" d="M454.98,346.31
					c0.91-0.08,0.82,3.86,1.68,7.66c0.92,4.07,2.47,5.57,3.26,8.9c0.91,3.81,0.83,5.58-0.5,8.19c-1.33,2.6-6.57,5.79-9.54,2.84
					c-2.42-2.4-2.78-5.44-2.91-9.36c-0.14-4.06-0.2-6.91-0.65-9.94c-0.43-2.89-1.37-5.44-0.61-5.89c0.1,0.42,0.2,0.95,0.3,1.36
					c0.08,0.32,0.3,1.88,0.81,1.81c0.01-0.38-0.02-0.73-0.08-1.1c-0.05-0.33-0.05-0.69,0.17-0.98c0.22-0.29,1.08-0.68,1.44-0.8
					c0.88-0.3,2.46-0.69,3.36-0.91c0.45-0.11,0.9-0.2,1.35-0.27c0.37-0.06,0.8-0.1,1.16-0.04c0.22,0.04,0.43,0.14,0.53,0.32
					c0.07,0.13,0.07,0.29,0.09,0.44c0.02,0.27,0.08,0.53,0.18,0.78c0.04,0.11,0.14,0.24,0.27,0.19c0.1-0.04,0.14-0.16,0.13-0.26
					c-0.04-0.47-0.13-0.8-0.21-1.35c-0.03-0.25-0.11-0.59-0.14-0.84C455.04,346.81,455.02,346.56,454.98,346.31z"/>
				<path class="st3" d="M459.62,361.79c0.14,0.55,0.99,4.18-0.09,5.04c-1.17,0.92-2.1-1.89-2.1-1.89s-2.96-0.32-7.04,1.99
					c0.27,0.57-0.21,2.66-1.4,2.43c-1.18-0.23-2.01-4.43-2.02-4.48c0.15,3.76,0.55,6.69,2.9,9.02c2.97,2.95,8.21-0.24,9.54-2.84
					c1.33-2.6,1.41-4.38,0.5-8.19C459.83,362.49,459.73,362.13,459.62,361.79z"/>
				<path class="st3" d="M457.12,365.24c0.14,1.41,1.66,0.68,1.56-1.32c-0.1-2-1.74-6.52-2.02-9.95c-0.44-4.7-0.77-7.74-1.68-7.66
					c0.01,0.05,0.01,0.1,0.02,0.14l0.29,1.95c0.05,0.28,0.1,0.53,0.12,0.84c0.27,2.87,0.52,8.46,1.02,11.04
					C456.94,362.87,456.98,363.83,457.12,365.24z"/>
				<path class="st3" d="M450.88,366.81c-0.42-1.34-0.75-2.23-1.29-4.8c-0.54-2.55-2.27-7.64-3.13-10.38
					c-0.26-0.45-0.4-1.33-0.45-1.55c-0.09-0.38-0.19-0.87-0.28-1.28c-0.01-0.03-0.02-0.06-0.02-0.08c-0.55,0.33-0.27,2.56,0.07,3.7
					c0.34,1.14,0.75,2.37,1.18,4.01c1.07,3.23,1.34,8.12,2.02,9.98C449.64,368.25,451.3,368.15,450.88,366.81z"/>
				<g>
					<g>
						<path class="st5" d="M450.32,367.05c0.04-0.01,0.08-0.03,0.12-0.05c0.03-0.02,3.2-2.05,6.93-1.77
							c0.18,0.01,0.36-0.11,0.39-0.28c0.03-0.17-0.09-0.31-0.27-0.33c-4-0.3-7.27,1.8-7.41,1.89c-0.16,0.1-0.21,0.29-0.11,0.43
							C450.05,367.05,450.18,367.09,450.32,367.05z"/>
					</g>
					<g>
						<path class="st5" d="M449.29,364.12c0.04-0.01,0.07-0.02,0.11-0.05c0.04-0.02,3.6-2.16,7.76-1.97
							c0.18,0.01,0.36-0.12,0.38-0.29c0.03-0.17-0.1-0.31-0.28-0.32c-4.4-0.19-8.05,1.99-8.2,2.09c-0.16,0.1-0.22,0.29-0.12,0.42
							C449.02,364.11,449.16,364.15,449.29,364.12z"/>
					</g>
					<g>
						<path class="st5" d="M456.7,359.23c0.13-0.03,0.23-0.13,0.27-0.25c0.05-0.17-0.06-0.32-0.24-0.35
							c-4.17-0.57-8.03,1.91-8.2,2.02c-0.16,0.1-0.21,0.29-0.11,0.43c0.1,0.13,0.31,0.15,0.46,0.05c0.04-0.02,3.79-2.43,7.67-1.89
							C456.6,359.25,456.65,359.24,456.7,359.23z"/>
					</g>
					<g>
						<path class="st5" d="M456.23,356.53c0.12-0.03,0.23-0.12,0.27-0.24c0.05-0.17-0.06-0.32-0.24-0.35
							c-4.6-0.71-8.21,1.91-8.36,2.02c-0.15,0.11-0.19,0.3-0.08,0.43c0.11,0.13,0.32,0.14,0.47,0.03c0.03-0.03,3.51-2.53,7.79-1.88
							C456.13,356.54,456.18,356.54,456.23,356.53z"/>
					</g>
					<g>
						<path class="st5" d="M455.68,353.5c0.12-0.03,0.23-0.12,0.26-0.24c0.05-0.17-0.05-0.32-0.23-0.35c-4.31-0.72-8.25,2-8.42,2.11
							c-0.15,0.11-0.19,0.3-0.09,0.43c0.1,0.13,0.31,0.15,0.47,0.04c0.04-0.03,3.84-2.65,7.85-1.98
							C455.58,353.51,455.64,353.51,455.68,353.5z"/>
					</g>
				</g>
			</g>
			<g>
				<path id="XMLID_00000059989126681424666530000014517263000247191685_" class="st4" d="M444.93,247.43
					c3.37,22.54,4.56,55,4.56,55c0.28,1.71,1.87,6.77,3.46,15.17c1.41,7.49,1.97,23.21,2.03,24.16c0,0-5.86,4.04-10.93,2.7
					c0,0-7.43-22.97-10.73-33.34c-3.12-9.82-7.42-25.63-7.42-25.63l-1.06,16.38c0,0,0.83,6.55,0.96,11.08
					c0.16,5.27-2.39,26.41-2.39,26.41s-5.79,3.7-11.21,0.04c0,0-4.85-30.47-5.44-36.78c-1.18-12.38-2.74-37.87-2.06-53.22
					L444.93,247.43z"/>
				<path id="XMLID_00000136396197187658233380000001110738266156938164_" class="st5" d="M425.9,285.49l-3.7-15.94
					c0,0-6.06-0.46-9.33-3.07c0,0,2.25,3.6,8.01,4.65l3.59,14.5l0.38,16.24L425.9,285.49z"/>
			</g>
		</g>
		<g id="Top_00000049198543510748853100000012208840906204268946_">
			<g id="Arm_00000052805834073850946760000018358998421029214345_">
				<g>
					<path class="st16" d="M386.84,185.94c1.14,5.28,0.49,4.69,3.52,8.84c6.37,8.74,14.01,19.02,14.01,19.02
						c6.82,2.65,7.33-6.19,11.45-10.66c-3.74-3.91-5.28-3.92-9.79-9.17c-2.85-3.31-7.58-8.78-7.58-8.78s-2.14-5.6-3.92-10.71
						c-2.23-6.44-2.96-7.36-1.98-10.46c0.47-1.5,0.65-3.48,0.77-4.41c0.27-2.16,0.22-4.34,0.4-6.51c0.01-0.15,0.02-0.32-0.04-0.46
						c-0.24-0.54-0.97-0.17-1.3,0.07c-0.45,0.33-0.66,0.9-0.82,1.43c-0.21,0.69-0.38,1.39-0.58,2.09c-0.05,0.18-0.18,0.84-0.44,0.83
						c-0.28,0-0.25-0.7-0.26-0.87c-0.05-0.71-0.02-1.43,0-2.14c0.06-1.79,0.13-3.57,0.19-5.36c0.01-0.25,0.02-0.5-0.05-0.73
						c-0.26-0.95-1.35-0.82-1.78,0.2c-0.12,0.27-0.21,0.56-0.27,0.85c-0.19,0.9-0.32,1.81-0.4,2.72c-0.03,0.38-0.06,0.75-0.14,1.12
						c-0.02,0.07-0.13,0.59-0.27,0.38c-0.03-0.05-0.04-0.12-0.04-0.18c-0.03-1.21,0.07-2.43,0.12-3.64
						c0.03-0.61,0.05-1.23,0.05-1.84c0-0.41,0.11-1.17-0.21-1.49c-0.11-0.11-0.26-0.16-0.41-0.19c-0.46-0.08-0.97,0.14-1.24,0.53
						c-0.15,0.22-0.27,0.49-0.37,0.73c-0.06,0.17-0.14,0.5-0.19,0.81c-0.29-0.69-1.21-0.51-1.56,0.05c-0.53,0.85-0.55,1.81-0.61,3
						c-0.06,1.35-0.09,2-0.1,4.02c0,0.39-0.18,0.64-0.26,0.2c-0.06-0.38-0.1-0.73-0.12-1.11c-0.03-0.47-0.02-0.62-0.06-1.12
						c-0.04-0.66,0.03-1.9-0.2-2.17c-0.21-0.25-0.66-0.13-0.9,0.07c-0.18,0.15-0.29,0.37-0.37,0.58c-0.55,1.39-0.46,2.95-0.35,4.44
						c0.09,1.2,0.2,2.39,0.3,3.58c0.19,2.2,0.41,4.48,1.53,6.37c0.39,0.65,0.77,1.52,0.96,2.25c0.7,2.68,1.12,5.72,1.68,8.88
						C385.64,179.35,385.97,181.93,386.84,185.94z"/>
					<path class="st17" d="M388.65,158.12c-1.99-0.15-2.84,2.51-3.19,4.04c-0.07,0.31,0.05,1.23,0.37,0.55
						c0.11-0.24,0.22-0.48,0.33-0.71c0.22-0.45,0.46-0.9,0.74-1.32c0.48-0.72,1.08-1.38,1.84-1.8c0.2-0.11,0.46-0.29,0.39-0.52
						c-0.04-0.14-0.2-0.22-0.35-0.24C388.74,158.12,388.69,158.12,388.65,158.12z"/>
					<g>
						<path class="st17" d="M385.28,147.96c0.02,2.39-0.06,4.76-0.49,7.12C384.64,152.69,384.74,150.29,385.28,147.96L385.28,147.96
							z"/>
					</g>
				</g>
				<path class="st3" d="M413.97,200.94c-2.92-2.38-6.07-5.64-8.64-8.39c-2.57-2.75-6.58-7.45-6.58-7.45l-5.4-13.93
					c0,0-0.71,1.52-3.96,2.46c-3.26,0.95-4.76-0.14-4.76-0.14s0.8,6.98,1.8,12.07c1,5.09,0.66,5.23,3.87,9.87
					c3.21,4.63,11.62,16.11,13.82,18.84c2.21,2.73,4.73,8.29,4.73,8.13C408.86,222.27,413.97,200.94,413.97,200.94z"/>
			</g>
			<g id="Chest_00000051365448945902719470000007137074085711732108_">
				<path id="Chest_00000065771582279412035280000006921486978996432526_" class="st1" d="M431.48,203.73
					c2.29,0.44,9.44,2.99,12.1,4.41c0,0,2.98,6.46,1.64,21.23c-0.21,2.36-0.75,8.73-0.97,13.65c-0.3,6.63,0.02,8.49,0.25,12.01
					c0,0-6.12,5.51-22.3,4.53c-12.7-0.77-16.59-5.93-16.59-5.93s-0.19-17.12,0.01-26.48c0.26-12.3,3.87-19.44,6.58-21.63l8.31-1.51
					L431.48,203.73z"/>
				<g>
					<path class="st8" d="M432.94,203.76l0.01,0.82c0,0-2.94,7.36-2.99,21.78c-0.04,14.42,0.59,37.49,0.59,37.49
						s9.84-0.35,16.36-5.75c0,0-1.41-12.49-1.35-18.22c0.06-5.73,1.52-14.03,3.03-22.2c1.53-8.3-10.18-19.14-10.18-19.14
						C436.8,200.75,434.99,202.51,432.94,203.76z"/>
					<path class="st8" d="M420.2,203.1c-2.95-0.18-3.86-0.73-6.23-2.16c0,0-6.6,7.69-8.17,19.03c-1.56,11.33-2.03,38.75-2.03,38.75
						c1.12,0.68,4.06,1.79,5.45,1.96c0,0,0.32-13.5,0.85-25.94c0.65-15.01,1.53-24.46,10.14-30.7L420.2,203.1z"/>
					<path class="st18" d="M435.34,228.47c-1.42,1.44-2.81,2.89-4.19,4.37c1.56-1.37,3.1-2.76,4.62-4.18l0.12-0.11
						c-0.62-1.23-1.21-2.47-1.85-3.68c0,0-1.37-2.64-1.65-3.18c1.32-0.5,2.63-1.03,3.94-1.56l0.2-0.08l0-0.21
						c0.09-4.47,0.12-9.12,0.01-13.58c-0.33,4.37-0.52,8.95-0.65,13.35c-1.48,0.57-2.96,1.14-4.43,1.75l0.17,0.32
						C432.71,223.67,434.21,226.49,435.34,228.47z M406.18,224.49l0.05,0.11c0.86,1.89,1.73,3.77,2.65,5.62
						c-0.68-1.91-1.41-3.8-2.16-5.69c1.12-1.65,2.21-3.32,3.28-4.99l0.12-0.19l-0.12-0.18l-1.61-2.37c0.32-1.01,0.72-2,1.16-2.98
						c1.45-3.07,3.27-5.93,5.27-8.68c-3.08,3.42-5.78,7.34-7.19,11.76c0,0,0.09,0.14,0.09,0.14l1.59,2.33
						c-1.04,1.66-2.07,3.32-3.07,5.01L406.18,224.49z"/>
				</g>
			</g>
			<g>
				<g id="Head_00000078738990981868717880000017036297375402221227_">
					<g>
						<g id="XMLID_00000029749340649070971700000018321113064062813101_">
							<g id="XMLID_00000099657568248144820870000004410764897306253456_">
								<path class="st5" d="M435.02,178.17c0,0,2.34,0.12,3.44,1.9c1.1,1.78,1.77,5.03,0.37,8.66c-1.54,4-4.53,7.85-5.18,8.98
									c-0.65,1.12-1.91,1.39-1.91,1.39l0.34-4.92l0.33-3.43c0,0-2.66-2.63-2.79-5.11c-0.17-3.19,1.15-4.94,1.15-4.94
									L435.02,178.17z"/>
								<path class="st5" d="M417.91,183.2c1.36-0.58,3.07-0.74,4.52-0.77c1.38-0.03,2.76-0.06,4.14-0.09
									c1.48-0.03,2.96-0.07,4.44-0.1c0,0,4.75-0.58,4.9-3.92c0.07-1.64-0.69-2.78-0.85-3.02c-0.57-0.86-1.5-1.85-2.35-2.45
									c-2.01-1.42-3.85-2.18-6.36-2.47c-1.81-0.21-3.63-0.03-5.43,0.24c-1.22,0.18-2.46,0.41-3.67,0.15
									c-0.86-0.18-1.77-0.74-1.88-1.61c-0.98,1.09-1.22,2.8-0.58,4.12c-1.18-0.1-2.34,0.76-2.7,1.89
									c-0.4,1.27,0.15,2.32,0.87,3.32c-0.09-0.12-0.6,0.8-0.64,0.88c-0.28,0.54-0.4,1.16-0.31,1.78c0.13,0.87,0.87,1.52,1.65,1.93
									C415.02,183.82,416.51,183.8,417.91,183.2z"/>
								<path class="st16" d="M436.53,195.81c-2.61,1.13-3.69-0.94-3.69-0.94l0.11,9.71c-4.16,7.24-17.28,5.84-13.49,0.13l0.07-2.86
									c0,0-0.86-0.01-2.2-0.31c-3.53-0.79-4.35-2.95-4.8-5.45c-0.7-3.89-0.34-9.24,1.3-15.35c0.31-1.18,0.89-2.46,2-2.95
									c2.77-1.22,5.2,0.82,8.92,2.46c1.54,0.68,5.33,1.11,6.35,0.68c-1.38,1.4-1.57,6,0.29,7.95c0.31,0.66,0.65,1.06,0.92,1.31
									c0.8,0.76,1.55-1.07,2.28-1.77c0.73-0.69,3.37-1.23,4.39,1.21C440.01,192.11,438.95,194.76,436.53,195.81z"/>
								<path class="st17" d="M419.54,201.85c2.97,0.11,5.5-0.13,7.59-1.13c1.72-0.82,4.16-3.2,4.77-5.53
									c-0.21,3.76-1.67,5.47-4.39,6.75c-2.71,1.28-6.06,1.41-8,1.37L419.54,201.85z"/>
							</g>
							<g id="XMLID_00000005975523842718131890000007948468663023711116_">
								<path id="XMLID_00000176018962264948251310000003843558256585292417_" class="st5" d="M424.27,183.5l2.21,1.59
									c0.43-0.64,0.29-1.51-0.32-1.95C425.55,182.7,424.7,182.87,424.27,183.5z"/>
								<path id="XMLID_00000134961348193590745600000007194962720239376019_" class="st5" d="M414.61,183.86l2.51-1.11
									c-0.28-0.71-1.07-1.04-1.77-0.73C414.66,182.32,414.33,183.15,414.61,183.86z"/>
								<path class="st5" d="M425.33,187.08c-0.05,0.61-0.58,1.07-1.19,1.02c-0.61-0.05-1.07-0.58-1.02-1.19
									c0.05-0.61,0.58-1.07,1.19-1.02C424.93,185.93,425.38,186.47,425.33,187.08z"/>
								<path class="st5" d="M417.05,186.38c-0.05,0.61-0.58,1.07-1.19,1.02c-0.61-0.05-1.07-0.58-1.02-1.19
									c0.05-0.61,0.58-1.07,1.19-1.02C416.74,185.24,417.11,185.67,417.05,186.38z"/>
								<path id="XMLID_00000075863519760702120350000006746055035840188059_" class="st17" d="M420.71,185.12l-1.22,7.02
									l-3.67-1.54C417.25,188.17,418.88,186.34,420.71,185.12z"/>
								<path id="XMLID_00000080185196083503345620000010099389425776352415_" class="st19" d="M423.27,192.92l-4.57,1.09
									c0.35,1.28,1.65,2.08,2.91,1.78C422.87,195.49,423.62,194.21,423.27,192.92z"/>
								<path class="st17" d="M420.52,195.78c0.41-1.24,1.51-2.14,2.83-2.28c0.03,1.07-0.66,2.03-1.74,2.29
									C421.24,195.88,420.87,195.86,420.52,195.78z"/>
							</g>
						</g>
					</g>
				</g>
			</g>
			<g>
				<polygon class="st3" points="417.86,116.12 443.36,64.54 429.1,56.31 409.66,67.53 398.87,89.2 385.5,81.48 368.02,91.57 
					368.02,174.79 382.28,183.03 399.76,172.94 399.76,152.13 403.89,143.86 409.93,150.6 424.19,158.83 444.7,146.99 				"/>
				<path class="st4" d="M406.36,138.93l-6.6,13.2v20.8l-17.48,10.09V99.81l17.48-10.09v34.6l24.16-48.55l19.44-11.22l-25.5,51.58
					l26.84,30.87l-20.51,11.84L406.36,138.93z"/>
				<polygon class="st4" points="368.02,91.57 382.28,99.81 399.76,89.72 385.5,81.48 				"/>
				<polygon class="st15" points="368.02,91.57 382.28,99.81 399.76,89.72 385.5,81.48 				"/>
				<polygon class="st4" points="409.66,67.53 423.92,75.77 443.36,64.54 429.1,56.31 				"/>
				<polygon class="st15" points="409.66,67.53 423.92,75.77 443.36,64.54 429.1,56.31 				"/>
				<polygon class="st5" points="406.36,138.93 424.19,158.83 409.93,150.6 403.89,143.86 				"/>
			</g>
			<g id="Arm_00000036219391007204093760000015429294174840841859_">
				<g>
					<path class="st16" d="M425.55,150.41c0.03-0.27,0.17-0.53,0.4-0.66c0.25-0.14,0.57-0.09,0.82,0.04
						c0.25,0.14,0.45,0.35,0.64,0.57c0.62,0.7,1.2,1.44,1.74,2.21c0.12,0.17,1,1.39,0.97,0.69c-0.01-0.24-0.16-0.59-0.26-0.8
						c-1.06-2.17-2.06-4.38-3-6.61c-0.2-0.47-0.33-1.28,0.16-1.64c0.46-0.33,1.09-0.04,1.44,0.31c0.21,0.21,0.4,0.44,0.56,0.68
						c0.51,0.76,0.98,1.55,1.4,2.37c0.17,0.34,0.33,0.67,0.55,0.98c0.04,0.06,0.34,0.5,0.39,0.25c0.01-0.06-0.01-0.12-0.03-0.18
						c-0.43-1.14-0.97-2.23-1.48-3.33c-0.26-0.56-0.51-1.12-0.74-1.69c-0.15-0.38-0.54-1.04-0.36-1.46
						c0.06-0.14,0.18-0.25,0.31-0.32c0.4-0.24,0.95-0.23,1.34,0.03c0.22,0.15,0.43,0.35,0.61,0.54c0.12,0.14,0.32,0.42,0.48,0.68
						c0.01-0.75,0.93-0.93,1.47-0.54c0.82,0.59,1.19,1.47,1.69,2.55c0.49,1.06,0.93,2.14,1.4,3.2c0.36,0.82,0.6,1.7,1,2.52
						c0.08,0.17,0.19,0.33,0.38,0.3c0.05-1.62-0.98-3.56,0.64-4.79c0.09-0.07,0.19-0.13,0.3-0.15c0.56-0.08,1.37,3.52,1.55,4.07
						c0.36,1.13,0.58,2.2,0.7,3.38c0.09,0.97-0.04,2,0.26,2.95c0.26,0.86,0.62,1.69,1.07,2.46c0.68,1.15,1.59,2.26,3.13,3.9
						c1.6,1.71,2.99,2.94,4.96,5.19c-1.2,0.91-2.46,1.75-3.86,2.48c-1.81,0.95-3.63,1.42-5.49,1.81c-1.5-2.5-2.66-4.42-4.25-6.92
						c-0.07-0.12-0.15-0.23-0.23-0.34c-0.11-0.14-0.22-0.28-0.33-0.41c-1.53-1.72-3.36-2.86-4.86-4.64
						c-1.31-1.55-2.07-3.06-2.99-4.61c-0.4-0.68-0.74-1.4-1.15-2.06c-0.42-0.68-0.85-1.37-1.15-2.12c-0.11-0.27-0.2-0.55-0.18-0.84
						C425.55,150.45,425.55,150.43,425.55,150.41z"/>
					<g>
						<path class="st17" d="M431.52,143.07c0.87,2.22,1.84,4.39,3.12,6.41C433.88,147.22,432.9,145.03,431.52,143.07L431.52,143.07z
							"/>
					</g>
				</g>
				<path class="st3" d="M438.42,198.54c1.88-3.27,3.66-7.43,5.08-10.92c1.43-3.49,2.08-5.72,2.08-5.72l-9.31-16.14
					c0,0,1.27,0.34,4.26-1.46c3.03-1.83,2.76-3.4,2.76-3.4s9.92,9.09,13.55,13.21c3.43,3.89,3.06,5.38,1.72,10.85
					c-1.34,5.47-5.71,17.95-6.8,21.29c-1.09,3.34-3.18,11.43-3.18,11.43C443.9,218.94,436.97,208.99,438.42,198.54z"/>
			</g>
		</g>
	</g>
</g>
<g id="Character_1">
	<g id="Character_00000047751151165220534790000006481447641843556519_">
		<g id="Bottom_9_">
			<g id="XMLID_00000079464079284842920640000001921181737304662942_">
				<g>
					<path class="st3" d="M111.33,420.72c0.47-0.1,0.58,1.33,0.48,1.96c-0.1,0.63-1.82,2.89-5.22,4c-3.39,1.11-8.26,0.99-10.33,1.13
						c-2.07,0.14-5.09,1.48-7.08,2.13c-4.61,1.5-7.44,0.09-8.78-0.94c-0.53-0.4-0.65-1.06-0.69-1.64c-0.11-1.37-0.01-1.66,0.15-1.66
						L111.33,420.72z"/>
					<g id="XMLID_00000177483885882616754900000006566018624585624192_">
						<g id="XMLID_00000180347045518491410460000006079525757734484108_">
							<path id="XMLID_00000098182384763190531760000005199712946767124364_" class="st4" d="M80,421.25
								c-0.19,0.95-0.35,1.94-0.44,2.91c-0.11,1.18-0.17,2.68,0.71,3.51c1.48,1.4,3.15,1.64,4.87,1.64c2.07,0,4.05-0.46,5.95-1.32
								c1.74-0.78,3.12-1.45,5.06-1.56c2.14-0.11,5.1-0.06,7.2-0.51c1.79-0.39,3.55-0.79,5.13-1.71c1.34-0.78,2.14-1.71,2.86-3.23
								c-0.19-2.67-1.68-3.79-3.24-4.46c-1.65-0.71-3.68-0.72-5.46-0.5c-2,0.25-3.49,0.69-5.28,0.77c-1.21,0.05-2.49,0.02-3.64-0.44
								c-0.55-0.22-1-0.96-1.3-1.45c-0.36-0.6-0.53-1.15-1.1-1.14c0,0-9.38,1.04-10.23,1.19c-0.96,0.16-0.69,1.47-0.66,2.17
								c0.03,0.61,0.01,0.62,0.04,1.23c0.03,0.6-0.15,1.46-0.29,2.04C80.13,420.67,80.06,420.96,80,421.25z"/>
						</g>
					</g>
					<path class="st0" d="M98.88,416.25c0.13-0.09,0.27-0.17,0.42-0.21c0.8-0.22,1.51,0.51,1.93,1.1c0.26,0.36,0.41,0.76,0.57,1.17
						c0.19,0.5,0.32,1.05,0.21,1.58c-0.03,0.14-0.11,0.3-0.25,0.28c-0.13-0.02-0.18-0.17-0.2-0.29c-0.16-0.73-0.45-1.44-0.86-2.07
						c-0.18-0.28-0.32-0.52-0.59-0.72c-0.26-0.19-0.55-0.34-0.87-0.42c-0.13-0.03-0.67,0.03-0.57-0.22c0.02-0.05,0.06-0.09,0.1-0.12
						C98.81,416.31,98.85,416.28,98.88,416.25z"/>
					<path class="st0" d="M96.53,416.53c0.37-0.08,0.78-0.02,1.11,0.18c0.39,0.24,0.56,0.61,0.76,1c0.39,0.76,0.76,1.9,0.38,2.73
						c-0.12,0.27-0.35,0.16-0.47-0.05c-0.12-0.24-0.13-0.58-0.2-0.83c-0.15-0.61-0.42-1.2-0.71-1.75c-0.12-0.22-0.24-0.44-0.41-0.62
						c-0.11-0.12-0.25-0.23-0.4-0.3c-0.07-0.03-0.15-0.06-0.23-0.07c-0.07-0.01-0.15,0-0.23,0c-0.01-0.12,0.11-0.2,0.22-0.23
						C96.41,416.56,96.47,416.54,96.53,416.53z"/>
					<path class="st0" d="M94.08,416.13c0.28,0.06,0.54,0.18,0.74,0.39c0.19,0.19,0.31,0.44,0.41,0.69
						c0.22,0.56,0.45,1.15,0.53,1.75c0.06,0.43,0.03,0.87-0.16,1.26c-0.07,0.15-0.22,0.32-0.39,0.26c-0.18-0.06-0.19-0.33-0.22-0.48
						c-0.06-0.28-0.07-0.58-0.1-0.87c-0.13-1.06-0.59-2.03-1.31-2.82c-0.04-0.04-0.07-0.09-0.07-0.14c0.01-0.08,0.12-0.1,0.2-0.09
						C93.83,416.08,93.96,416.1,94.08,416.13z"/>
					<path class="st0" d="M101.41,416.19c0.82-0.11,2.7,0.83,3.83,3.27c1.14,2.45,1.02,5.71,1.02,5.71s2.43-0.43,4.36-2.7
						c0.54-0.63,0.84-1.14,0.99-1.59c0.03-1.69-0.52-3.04-1.3-3.78c-1.37-1.3-3.33-2.04-6.29-1.86c-3.31,0.2-3.5,1.1-3.5,1.1
						L101.41,416.19z"/>
				</g>
				<path id="XMLID_00000067215714568060064380000014821136604995884210_" class="st20" d="M79.5,400.4c0,0,1.39,13.13,1.67,15.82
					c0.12,1.14,2.64,2.4,6.14,2.05c2.46-0.24,3.98-1.73,4.21-3c0.22-1.27,0.94-16.68,0.94-16.68L79.5,400.4z"/>
			</g>
			<g>
				<polygon class="st20" points="43.89,397.08 47.55,383.59 60.3,388.26 51.22,403.84 				"/>
				<g>
					<path id="XMLID_16854_" class="st4" d="M39.28,400.82c-0.28,1.16,0.01,2.37,0.17,3.53c0.16,1.17,0.33,2.32,0.42,3.5
						c0.06,0.74,0.13,1.42,0.29,2.13c0.19,0.8,0.08,1.75,0.1,2.57c0.02,0.9,0.04,1.8,0.05,2.7c0,0.35,0.08,0.8,0,1.15
						c-0.09,0.37,5.69,3.69,8.03,4.97c0.14,0.08,0.27,0.14,0.42,0.2c2.13,0.84,3.79-0.89,3.79-0.89c1.64-4.35-1.57-7.09-1.57-7.09
						s-0.3,0.02-0.24-2.27c0-1.63,0.02-3.28,0.17-4.9c0.1-1.02,0.52-1.35,0.9-2.3c0.35-0.86,1.03-1.78,0.99-2.75
						c-0.03-0.78-0.68-1.96-1.04-2.59c-0.85-1.46-2.72-2.67-4.23-3.34c-0.86-0.38-2.26-0.81-3.14-0.27
						c-0.48,0.29-0.7,0.85-1.04,1.29c-0.4,0.52-0.98,0.88-1.52,1.25c-1.05,0.72-2.08,1.61-2.48,2.82
						C39.33,400.63,39.3,400.72,39.28,400.82z"/>
					<path id="XMLID_00000076592033328238611910000000712604670676724918_" class="st0" d="M50.98,413.58
						c0.29,0.36,0.54,0.72,0.75,1.09h0.01c1.03,1.77,1.29,3.77,0.81,6c4.09-0.37,5.16-2.73,5.16-2.73s0.23-2.04-2.12-3.52
						c-0.3-0.19-0.59-0.35-0.89-0.47c-0.02-0.01-0.03-0.02-0.04-0.03C52.68,413.09,50.98,413.58,50.98,413.58z"/>
					<path id="XMLID_16847_" class="st5" d="M38.33,401.45c-1.08,0.42-0.8,3.37-0.12,6.21c0.68,2.84,1.05,3.83,0.7,6.2
						c-0.34,2.36-0.54,3.42,0.42,4.29c0.96,0.87,8.63,4.45,8.63,4.45s-1.51-3.64-1.71-8.88c-0.2-5.24-0.55-8.61-2.98-10.99
						C40.84,400.34,38.33,401.45,38.33,401.45z"/>
					<path id="XMLID_00000180326931783592206980000006794831937494315706_" class="st3" d="M57.72,417.94c0,0-2.98,2.4-6.4,2.79
						c-3.42,0.39-3.59-0.93-3.95-4.98c-0.36-4.05-0.5-9.66-2.09-12.13c-1.6-2.47-4.28-3.56-5.34-3.31
						c-0.22-0.11-1.26,0.67-1.61,1.14c0,0,2.34-0.29,4.48,1.8c2.14,2.09,2.53,6.5,2.62,10.5c0.1,4.01,0.27,8.65,3.47,9.14
						c3.19,0.49,6.58-0.88,8.7-2.65C58.82,419.23,57.72,417.94,57.72,417.94z"/>
					<g>
						<path id="XMLID_00000165232246604059835580000015474838630613610682_" class="st0" d="M50.74,412.09c0,0,0.43,0.28,0.47,0.74
							c0.05,0.46-0.14,1.52-1.16,2.1c-0.43,0.25-0.8,0.15-0.11-0.7C50.64,413.4,50.74,412.09,50.74,412.09z"/>
						<path id="XMLID_00000161597890127318269740000016887691945533582265_" class="st0" d="M50.8,409.27c0,0,0.27,0.25,0.29,0.61
							c0.02,0.37-0.66,1.87-1.41,2.21c-0.75,0.33-0.35-0.49,0-0.88C50.03,410.83,50.8,409.27,50.8,409.27z"/>
						<path id="XMLID_00000019662547169728067630000015087903289649503673_" class="st0" d="M50.99,406.16c0,0,0.33,0.17,0.35,0.5
							c0.02,0.33-1.52,1.48-2,1.44c-0.48-0.04-0.6-0.19,0-0.6C49.94,407.11,50.99,406.16,50.99,406.16z"/>
					</g>
				</g>
			</g>
			<path id="XMLID_00000178164178500814174600000010095084035636033204_" class="st3" d="M55.33,397.03c0,0,4.57-7.33,12.92-20.99
				c2.37-3.87,3.67-6.71,4.24-9.65c0.57-2.94,2.89-11.9,2.89-11.9l2.23,15.27c-0.61,3.86-0.67,9.88,0.17,20.07
				c0.74,9.05,2.32,20.22,2.32,20.22c0.81,0.61,4.14,1.15,6.22,0.97c5.2-0.43,6.15-2.55,6.15-2.55s1.72-18.02,2.31-24.74
				c1.39-15.8,1.8-19.52,2.58-37.72c0.66-15.4-0.8-24.93-5.13-38.73c-11.27,5.11-26.57,4.15-32.88-1.48c0,0-5.06,8.55-5.18,22.07
				c-0.1,11.4,0.86,33.51,0.86,33.51c-2.51,3.79-4.08,6.8-5.46,12.3c-1.59,6.35-2.73,10.64-4.41,17.74
				C51.59,391.24,55.33,397.03,55.33,397.03z"/>
			<path class="st5" d="M54.2,392.61c0.82-1.53,1.63-3.07,2.46-4.6c1.54-2.87,4.99-8.72,6.46-11.62c2.95-5.85,5.53-11.93,7.06-18.32
				c0.42-1.74,0.76-3.49,0.99-5.26c0.12-0.94,0.21-1.87,0.28-2.82c0.1-1.48-0.01-2.99,0.19-4.46c0.03-0.19,0.36-0.64,0.48-0.25
				c0.48,1.6,0.34,3.44,0.26,5.09c-0.08,1.7-0.26,3.4-0.53,5.08c-0.53,3.32-1.4,6.58-2.54,9.75c-2.31,6.44-7.44,15.5-10.68,21.52
				c-0.92,1.7-1.84,3.41-2.77,5.1c-0.63,1.16-1.25,2.36-1.91,3.53c-0.24-0.25-0.52-0.52-0.82-0.79
				C53.48,393.91,53.85,393.25,54.2,392.61z"/>
			<path class="st5" d="M90.07,325.44c-0.62-5.45-1.71-10.97-3.62-16.15c0.3-0.08,0.59-0.16,0.88-0.24
				c2.16,5.21,3.34,10.72,4.01,16.32c2.78-0.64,3.29-4.57,3.2-6.93c-0.05-1.41-0.27-2.8-0.52-4.18c-0.17-0.95-0.41-1.94-0.58-2.93
				c0.8,2.77,1.47,5.39,2.03,7.97c0,0.11,0,0.21,0,0.32c-0.14,2.54-1.25,6.06-4.03,6.7c0.58,5.31,0.73,10.7,0.84,16.01
				c0.3,14.22,0,28.45-0.9,42.65c-0.41,6.52-1.2,19-2.05,25.5c-0.37,0.11-0.78,0.21-1.24,0.3c0.42-5.67,1.44-17.23,1.83-22.91
				c0.48-7.01,0.81-14.04,1-21.06c0.2-7.31,0.24-14.62,0.13-21.92C90.94,338.4,90.8,331.89,90.07,325.44z"/>
			<path class="st5" d="M92.22,307.27l-0.92-5.49c0,0-7.37,4.12-16.13,3.6c-8.77-0.53-14.56-5.09-14.56-5.09l-1.27,5.5
				c0,0,3.73,5.46,15.91,5.29C87.44,310.9,92.22,307.27,92.22,307.27z"/>
			<path id="XMLID_00000044870005553908774220000017809766221412802209_" class="st5" d="M75.39,354.49l-3.58-21.62
				c0,0-4.04,0.28-10.26-5.19c0,0,0.99,4.64,7.68,7.81l3.75,20.84l-0.48,10.05L75.39,354.49z"/>
		</g>
		<g id="Top_00000074438424706044730330000018170238170710568617_">
			<g>
				<g>
					<path class="st20" d="M103.97,216.37c-0.58,0.38-1,0.97-1.41,1.53c-0.56,0.75-1.15,1.49-1.77,2.19
						c-0.07,0.08-0.22,0.16-0.28,0.07c-0.02-0.04-0.01-0.09,0-0.13c0.15-0.51,0.4-0.99,0.64-1.46c0.68-1.31,1.34-2.64,1.92-4
						c0.14-0.33,0.28-0.67,0.31-1.02c0.04-0.36-0.02-0.83-0.29-1.08c-0.16-0.14-0.54-0.44-1.02-0.15c0.21-0.42,0.28-0.76,0.15-1.14
						c-0.23-0.73-1.03-1-1.62-0.52c-0.22,0.18-0.38,0.42-0.54,0.66c-1.21,1.86-2.17,3.85-3.28,5.76c-0.15,0.26-0.43,0.26-0.35-0.09
						c0.35-1.64,1.2-3.13,1.53-4.78c0.13-0.65,0.31-1.35-0.27-1.8c-0.7-0.55-1.23-0.01-1.56,0.63c-1.13,2.2-2.17,4.46-3.07,6.76
						c-0.19,0.48-1.22,3.23-1.54,1.49c-0.13-0.68-0.23-1.35-0.36-2.02c-0.1-0.51-0.25-1.07-0.64-1.42
						c-0.29-0.26-0.94-0.68-1.21-0.19c-0.07,0.13-0.08,0.28-0.08,0.43c-0.03,2.06-0.28,4.11-0.22,6.18
						c0.02,0.89,0.01,2.77,0.32,4.23c0.3,1.41-2.14,7.25-4.65,12.75c1.98,2.51,4.75,4.13,9.72,3.25c1.18-4.35,2.29-8.49,2.54-9.35
						c0,0,0.73-2.03,1.17-3.02c0.38-0.87,0.85-1.67,1.29-2.51c0.45-0.86,0.85-1.76,1.29-2.63c0.89-1.78,1.83-3.53,2.88-5.22
						c0.47-0.75,0.98-1.51,1.23-2.36C105,216.77,104.77,215.85,103.97,216.37z"/>
					<g>
						<path class="st21" d="M95.49,223.74c-0.12-0.89-0.61-1.83-1.44-2.24c-0.13-0.07-0.18,0.23-0.09,0.29
							c0.67,0.49,1.06,1.38,1.07,2.2c0.01,0.99-0.17,1.85-0.62,2.77c-0.04,0.07,0.03,0.26,0.14,0.15
							C95.31,226.08,95.64,224.85,95.49,223.74z"/>
						<path class="st21" d="M99.53,217.53c0.33-0.53,0.59-1.08,0.9-1.62c0.3-0.53,0.6-1.06,0.87-1.6c0.25-0.49,0.8-1.35,0.79-1.92
							c0-0.08-0.14,0.15-0.17,0.2c-0.43,0.68-1.42,2.62-1.76,3.22c-0.6,1.08-1.32,2.24-1.84,3.36c-0.04,0.1,0.07,0.11,0.12,0.05
							C98.91,218.71,99.15,218.12,99.53,217.53z"/>
					</g>
				</g>
				<path class="st2" d="M84.69,239.24c-2.52,5.52-5.5,10.47-5.5,10.47s-14.91,13.63-18.66,17.57c-3.75,3.94-6.78,12.88-2.9,19.58
					c1.66-3.63,2.42-5.13,6.93-8.47c5.81-4.29,16.81-12.34,20.13-15.49c3.14-2.98,5.25-4.84,6.9-10.27
					c0.59-1.93,1.74-6.13,2.82-10.15C90.35,242.69,87.21,241.46,84.69,239.24z"/>
			</g>
			<g id="XMLID_00000031190505600863958480000000654572433149503921_">
				<g>
					<path id="XMLID_00000085959891275099512930000015967944390932481448_" class="st21" d="M83.13,246.58c0,0,4.14,3.47,3.93,3.93
						c-0.21,0.46-1.61,1.29-1.61,1.29L83.13,246.58z"/>
					<path id="XMLID_00000049193558103731215020000002891499635796407984_" class="st20" d="M73.46,237.99
						c2.26,0.45,5.99,0.53,9.13,5.79c0.54,0.91,0.58,2.53,1.07,3.72c0.56,1.34,1.59,2.71,1.93,3.81c1.78,5.75,0.73,8.45,0,9.68
						c-0.59,0.99-4.68,2.43-7.03,2.38c-2.95-0.07-9.64-1.27-13.64-4.94c-4.71-4.32-7.34-11.1-4.36-14.89
						C64.75,238.21,71.21,237.54,73.46,237.99z"/>
					<path class="st21" d="M85.41,261.21c-0.82,0.81-3.53,1.81-5.68,2.09l-0.96-1.56c0,0,1.89,0.21,3.58,0.12
						C84.05,261.77,85.39,261.21,85.41,261.21z"/>
					<path class="st20" d="M80.08,261.54l-0.65,7.61c0,0-5.81,1.76-11.94,0.01l0.65-4.12C71.2,260.88,75.62,259.78,80.08,261.54z"/>
				</g>
				<path id="XMLID_00000163035494021288102000000009557884825422509200_" class="st5" d="M75.86,234.48c0.2-0.02,0.4-0.03,0.6-0.02
					c1.1,0.07,2.18,0.43,3.12,1.01c1.42,0.87,2.51,2.21,3.21,3.72c0.44,0.95,0.74,2.03,0.52,3.06c-0.23,1.07-0.98,1.96-1.8,2.68
					c0.2-1.14-0.34-2.36-1.31-2.99c0.51,1.17,0.56,2.53,0.13,3.74c-0.43,1.2-1.33,2.23-2.47,2.81c0.56,0.63,0.9,1.45,0.96,2.3
					c0.02,0.24,0.01,0.5-0.11,0.72c-0.31,0.6-1.01,0.28-1.42-0.01c-0.28-0.2-0.52-0.44-0.8-0.65c-0.81-0.61-1.28-0.92-2.57-0.79
					c-0.93,0.09-1.96,1.14-2.03,1.96c-0.15,1.74,0.86,3.34,1.61,4.01c1,0.89,2.01,1.28,2.88,1.09c0.43-0.1,1.4-0.57,1.58-1.25
					c0,0,1.76,4.64-1.67,7.25c0,0-3.95,2.32-8.15,1.95c-0.47-0.04-1.5-1.13-1.91-1.41c-0.79-0.55-1.6-1.08-2.41-1.61
					c-1.35-0.88-2.36-1.91-3.51-3.03c-2.45-2.38-3.82-5.62-4.57-9c-0.56-2.53,0.51-5.76,0.51-5.76c0.44-1.32,0.54-2.55,1.28-3.79
					c0.72-1.2,1.68-2.24,2.78-3.1c2.35-1.86,5.28-2.95,8.24-3.28c1.71-0.19,3.44-0.12,5.12,0.25c0.39,0.08,0.79,0.24,1.18,0.25
					C75.18,234.58,75.52,234.52,75.86,234.48z"/>
			</g>
			<g>
				<path id="XMLID_00000067953254623650411050000004795344670758289057_" class="st8" d="M58.18,273.63
					c0.91-3.45,2.03-5.71,8.58-5.41l0.91,0.03c2.33,0.34,4.15,0.39,9.61-0.15c5.46-0.54,6.96-0.86,8.58-0.41
					c0,0,6.97,7.05,9.33,14.53c1.83,5.78-1.01,9.7-2.32,11.22c0.16,6.95,1.31,18.9,1.31,18.9s-5.42,6.47-20.78,5.9
					c-10.01-0.37-15.49-5.84-16.62-7.6c0,0,2.89-7.49,3.01-12.25C58.96,291.46,55.53,283.7,58.18,273.63z"/>
			</g>
			<path class="st5" d="M50.14,246.78c-0.9,1.78-1.22,3.86-0.9,5.84c0.5,3.12,2.27,5.89,3.01,8.96c0.73,2.99-1.69,6.12-2.43,8.97
				c-1.25,4.85,0.66,10.36,4.64,13.39c-0.37-1.25-0.47-2.58-0.3-3.88c0.05,1.8,1.16,3.44,2.58,4.56c1.41,1.12,3.12,1.8,4.79,2.45
				c-1.69-1.34-2.09-3.81-1.62-5.92c0.47-2.1,1.66-3.96,2.69-5.86c1.02-1.87,1.61-3.86,2.17-5.9c0.66-2.38-0.03-5.04-1.05-7.2
				c-1.16-2.45-2.44-4.85-3.31-7.42c-0.87-2.57-1.3-5.36-0.7-8c0.14-0.63,0.35-1.27,0.34-1.92c-0.03-1.89-1.56-2.9-3.32-2.7
				c-2.04,0.23-3.99,1.25-5.35,2.79C50.89,245.5,50.48,246.12,50.14,246.78z"/>
			<g>
				<polygon class="st3" points="136.71,140.89 80.8,173.16 80.8,191.83 95.06,200.06 99.97,197.23 99.97,245.32 114.23,253.55 
					131.89,243.36 131.89,178.8 150.97,167.79 150.97,149.12 				"/>
				<path class="st4" d="M114.23,189l-19.17,11.07V181.4l55.91-32.28v18.67l-19.08,11.02v64.55l-17.66,10.19V189z"/>
				<polygon class="st4" points="80.8,173.16 95.06,181.4 150.97,149.12 136.71,140.89 				"/>
				<polygon class="st15" points="80.8,173.16 95.06,181.4 150.97,149.12 136.71,140.89 				"/>
				<polygon class="st5" points="114.23,189 99.97,197.23 99.97,245.32 114.23,253.55 				"/>
			</g>
			<g>
				<path class="st2" d="M118.8,257.19c-3.03,3.31-6.26,6.81-6.26,6.81s-13.48,2.18-20.28,2.79c-2.01,0.18-3.97,0.6-6.38,0.9
					c0,0-2.02,4.95,1.49,11.31c1.45,2.62,4.32,3.94,5.52,4.23c2.3-3.24,10.98-4.44,19.08-6.87c5.32-1.59,6.9-2.49,8.52-4.51
					c1.07-1.33,3.91-5.85,6.27-9.68C123.58,261.49,120.69,260.58,118.8,257.19z"/>
				<path class="st20" d="M135.83,244.38c-0.38-0.66-0.51-1.04-0.45-1.81c0.05-0.59-0.07-1.46-0.43-1.96
					c-0.13-0.17-0.29-0.35-0.39-0.54c-0.3-0.55-0.19-1.3-0.21-1.91c-0.03-0.73-0.09-1.06-0.55-1.64c-0.35-0.44-0.46-0.83-0.56-1.37
					c-0.08-0.44-0.09-1.89-0.86-1.68c-0.39,0.11-0.84,0.75-1.03,1.07c-0.37,0.61-0.63,1.39-0.79,2.09
					c-0.18,0.79-0.17,1.57-0.29,2.36c-0.28,1.81-0.98,3.66-1.97,5.21c-0.15,0.24-0.5,0.74-0.83,0.6c-0.15-0.06-0.25-0.24-0.32-0.38
					c-0.14-0.29-0.17-0.64-0.25-0.95c-0.09-0.34-0.19-0.68-0.28-1.02c-0.18-0.72-0.64-1.58-1.32-1.94
					c-0.51-0.27-1.19-0.31-1.21,0.42c-0.02,0.67,0.23,1.32,0.19,2c-0.04,0.73-0.24,1.46-0.32,2.19c-0.12,1.11-0.14,2.25,0.06,3.35
					c0.18,0.96,0.25,1.92-0.07,2.9c-0.07,0.21-2.53,2.95-5.15,5.81c1.89,3.39,4.79,4.3,7.94,4.99c1.85-2.99,3.4-5.56,3.58-5.83
					c0.41-0.62,0.92-1.15,1.37-1.74c0.5-0.65,0.94-1.36,1.42-2.02c0.9-1.23,1.73-2.54,2.32-3.95
					C135.94,247.41,136.55,245.65,135.83,244.38z"/>
			</g>
		</g>
	</g>
</g>
<g id="Speech_Bubble">
	<g id="Speech_Bubble_10_">
		<g id="Speech_Bubble_12_">
			<path id="XMLID_1279_" class="st8" d="M88.87,142.14l-4.38-8.23l3.52-10.16v-6.22l-10.78,6.22v6.22l4.63,8.02
				c0.08,0.14,0.19,0.22,0.31,0.28l0,0L88.87,142.14z"/>
			<path id="XMLID_1259_" class="st22" d="M88.87,142.14l-4.38-8.23l3.52-10.16v-6.22l-10.78,6.22v6.22l4.63,8.02
				c0.08,0.14,0.19,0.22,0.31,0.28l0,0L88.87,142.14z"/>
			<path id="XMLID_1258_" class="st8" d="M114.61,68.06c0-2.06-1.45-4.57-3.23-5.6l-2.63-1.52c-1.78-1.03-4.68-1.03-6.46,0
				L61.94,84.28c-1.78,1.03-3.23,3.54-3.23,5.6v44.39c0,2.06,1.45,4.57,3.23,5.6l2.63,1.52c1.78,1.03,4.68,1.03,6.46,0l12.98-7.5
				l4.62,8.01c0.3,0.51,1.06,0.44,1.25-0.12l4.89-14.11l16.61-9.62c1.78-1.03,3.23-3.54,3.23-5.6L114.61,68.06z"/>
			<path id="XMLID_1234_" class="st22" d="M58.71,134.26c0,2.06,1.45,4.57,3.23,5.6l2.63,1.52c1.61,0.93,4.12,1.01,5.91,0.26
				c-1.52,0.58-2.68-0.28-2.68-2.13l0-44.39c0-1.03,0.36-2.17,0.95-3.18l-9.09-5.25c-0.58,1.01-0.95,2.15-0.95,3.18V134.26z"/>
			<path id="XMLID_1219_" class="st13" d="M114.5,67.14c-0.38-1.37-1.63-1.81-3.12-0.95L71.03,89.53c-0.89,0.51-1.7,1.39-2.28,2.41
				l-9.09-5.25c0.59-1.03,1.39-1.9,2.28-2.41l40.34-23.34c1.79-1.02,4.69-1.02,6.47,0l2.64,1.52
				C112.9,63.34,114.18,65.3,114.5,67.14z"/>
		</g>
		<path id="XMLID_1204_" class="st0" d="M79.02,104.71c-0.01-2.43,0.57-4.97,1.52-7.22l0,0l0.02-0.05c1.12-2.61,2.76-4.81,4.59-5.88
			c3.14-1.85,5.75,1.94,6.17,6.39c0.37-4.91,2.93-11.73,6.07-13.57c1.83-1.07,3.48-0.81,4.62,0.48l0.02,0.02l0,0.01
			c0.97,1.12,1.57,2.97,1.59,5.4c0.04,7.52-4.46,14.32-8.22,21.48l-4.06,6.91l-3.92-2.24C83.6,113.74,79.06,112.23,79.02,104.71z"/>
	</g>
</g>
</svg>
